<svg version="1.1" xmlns="http://www.w3.org/2000/svg" viewBox="0 0 720 680" width="1440" height="1360">
  <!-- svg-source:excalidraw -->
  
  <defs>
    <style class="style-fonts">
      @font-face {
        font-family: "Virgil";
        src: url("https://excalidraw.com/Virgil.woff2");
      }
      @font-face {
        font-family: "Cascadia";
        src: url("https://excalidraw.com/Cascadia.woff2");
      }
      @font-face {
        font-family: "Assistant";
        src: url("https://excalidraw.com/Assistant-Regular.woff2");
      }
    </style>
    
  </defs>
  <g stroke-linecap="round" transform="translate(10 210) rotate(0 170 120)"><path d="M32 0 C116.05 -0.74, 193.78 1.93, 308 0 M32 0 C142.45 -5.14, 253.11 -4.66, 308 0 M308 0 C326.12 1.84, 339.73 14.54, 340 32 M308 0 C333.92 1.86, 343.86 12.24, 340 32 M340 32 C340.11 86.6, 336.48 142.43, 340 208 M340 32 C336.42 67.58, 336.34 105.42, 340 208 M340 208 C337.47 227.51, 325.93 237.83, 308 240 M340 208 C341.5 233.68, 329.32 240.12, 308 240 M308 240 C204.15 240.06, 97.44 245.4, 32 240 M308 240 C217.5 238.66, 128.41 238.8, 32 240 M32 240 C9.25 241.16, 1.42 228.35, 0 208 M32 240 C14.49 236.18, -3.44 227.34, 0 208 M0 208 C1.71 143.77, -0.32 77.62, 0 32 M0 208 C-2.35 153.6, -3.01 95.83, 0 32 M0 32 C1.57 12.24, 11.73 -1.82, 32 0 M0 32 C1.77 15.03, 12.74 -3.67, 32 0" stroke="#1971c2" stroke-width="2" fill="none"></path></g><g transform="translate(30 230) rotate(0 43.19019317626953 17.5)"><text x="0" y="0" font-family="Virgil, Segoe UI Emoji" font-size="28px" fill="#1971c2" text-anchor="start" style="white-space: pre;" direction="ltr" dominant-baseline="text-before-edge">Server</text></g><g stroke-linecap="round" transform="translate(30 290) rotate(0 150 20)"><path d="M2.66 2.31 C2.66 2.31, 2.66 2.31, 2.66 2.31 M2.66 2.31 C2.66 2.31, 2.66 2.31, 2.66 2.31 M0.83 16.62 C5.03 12.12, 10.95 1.71, 14.6 0.77 M0.83 16.62 C6.27 12.29, 11.59 4.5, 14.6 0.77 M0.3 29.41 C7.91 18.48, 12.46 10.98, 25.23 0.74 M0.3 29.41 C8.73 19.37, 17.41 8.41, 25.23 0.74 M3.72 37.68 C15.83 29.65, 17 20, 35.86 0.7 M3.72 37.68 C13.1 29.78, 20.11 17.39, 35.86 0.7 M11.72 40.67 C23.33 27.36, 36.94 14.18, 46.49 0.67 M11.72 40.67 C18.98 34.49, 25.99 25.03, 46.49 0.67 M22.35 40.63 C31.53 30.19, 44.63 11.34, 57.12 0.63 M22.35 40.63 C30.48 32.6, 38.68 22.43, 57.12 0.63 M32.98 40.6 C44.89 30.71, 53.58 16.57, 67.75 0.6 M32.98 40.6 C41.72 29.51, 54.94 18.97, 67.75 0.6 M43.61 40.56 C49.23 30.37, 62.93 20.06, 78.38 0.56 M43.61 40.56 C54.1 26.1, 66.5 12.92, 78.38 0.56 M54.24 40.53 C68.36 24.72, 78.82 15.72, 89.01 0.53 M54.24 40.53 C66.32 27.17, 75.42 16.85, 89.01 0.53 M64.87 40.49 C78.49 30.23, 87 14.27, 99.64 0.49 M64.87 40.49 C75.97 25.73, 89.94 11.63, 99.64 0.49 M75.5 40.46 C93.58 26.22, 104.88 11.42, 110.27 0.46 M75.5 40.46 C85 29.06, 93.67 18.29, 110.27 0.46 M86.13 40.42 C95.13 32.53, 101.76 27.75, 120.9 0.43 M86.13 40.42 C93.85 29.44, 104.98 18.47, 120.9 0.43 M96.76 40.39 C101.58 35.04, 111.8 20.56, 131.53 0.39 M96.76 40.39 C109.4 23.96, 125.5 8, 131.53 0.39 M107.39 40.36 C123.7 22.31, 131.85 10.69, 142.17 0.36 M107.39 40.36 C118.44 26.3, 126.15 14.38, 142.17 0.36 M118.02 40.32 C130.36 31.16, 139.13 18.37, 152.8 0.32 M118.02 40.32 C127.98 30.67, 135.7 18.56, 152.8 0.32 M128.65 40.29 C135.96 28.46, 147.48 19.24, 163.43 0.29 M128.65 40.29 C137.1 30.08, 148.3 18.86, 163.43 0.29 M139.28 40.25 C146.13 34.11, 156.23 21.83, 173.4 1.01 M139.28 40.25 C146.14 33.96, 152.87 22.58, 173.4 1.01 M149.91 40.22 C158.16 30.37, 170.07 18.4, 184.03 0.97 M149.91 40.22 C160.86 25.95, 174.22 12.96, 184.03 0.97 M160.54 40.18 C168.73 30.89, 174.17 25.08, 194.66 0.94 M160.54 40.18 C169.41 26.85, 181.22 14.37, 194.66 0.94 M171.17 40.15 C177.65 29.04, 188.03 24.22, 205.29 0.9 M171.17 40.15 C178.37 28.14, 189.89 19.76, 205.29 0.9 M181.8 40.11 C192.78 24.48, 207.76 8.98, 215.92 0.87 M181.8 40.11 C190.23 29.87, 199.89 21.87, 215.92 0.87 M191.78 40.83 C200.07 30.59, 207.62 24.57, 226.55 0.83 M191.78 40.83 C202.75 30.51, 211.4 16.73, 226.55 0.83 M202.41 40.8 C210.14 35.2, 215.7 21, 237.18 0.8 M202.41 40.8 C214.35 24.72, 228.3 12.03, 237.18 0.8 M213.04 40.77 C228.65 28.08, 234.66 8.59, 247.81 0.77 M213.04 40.77 C227.47 26.53, 239.89 10.88, 247.81 0.77 M223.67 40.73 C235.35 29.49, 249.57 18.12, 258.44 0.73 M223.67 40.73 C233.39 28.02, 244.68 16.97, 258.44 0.73 M234.3 40.7 C237.44 33.31, 250.45 21.82, 269.07 0.7 M234.3 40.7 C244.07 29.35, 253.61 18.25, 269.07 0.7 M244.93 40.66 C253.9 32.81, 256.68 25.48, 279.7 0.66 M244.93 40.66 C257.78 26.46, 273.47 12.25, 279.7 0.66 M255.56 40.63 C265.2 25.23, 281.82 11.2, 290.33 0.63 M255.56 40.63 C265.83 28.21, 275.91 17.08, 290.33 0.63 M266.19 40.59 C276.24 28.93, 281.55 22.05, 297.68 4.37 M266.19 40.59 C278.3 28.18, 287.47 18.2, 297.68 4.37 M276.82 40.56 C284.43 34.24, 293.35 25.1, 300.44 13.39 M276.82 40.56 C285.14 29.29, 293.02 20.87, 300.44 13.39 M287.45 40.52 C289.26 38.21, 293.94 30.03, 300.57 25.43 M287.45 40.52 C292.59 36.57, 293.02 33.78, 300.57 25.43 M2.13 37.18 C2.13 37.18, 2.13 37.18, 2.13 37.18 M2.13 37.18 C2.13 37.18, 2.13 37.18, 2.13 37.18 M16.44 39.01 C8.11 35.79, 8.01 28.35, 0.59 25.24 M16.44 39.01 C10.54 32.57, 5.93 30.62, 0.59 25.24 M29.23 39.54 C16.94 28.11, 5.11 23.83, 1.31 15.26 M29.23 39.54 C21.2 31.23, 9.74 22.3, 1.31 15.26 M41.27 39.4 C33.75 33.21, 17.67 22.21, 1.27 4.63 M41.27 39.4 C28.03 27.29, 13.17 14.5, 1.27 4.63 M53.31 39.27 C32.79 28.16, 17.09 7.15, 8.03 -0.09 M53.31 39.27 C40.13 28.25, 29.57 18.2, 8.03 -0.09 M65.35 39.14 C50.83 31.08, 40.76 14.26, 19.32 -0.88 M65.35 39.14 C55.79 31.31, 44.8 21.79, 19.32 -0.88 M77.39 39 C62.19 23.16, 45.85 8.88, 32.11 -0.36 M77.39 39 C65.14 27.36, 49.95 14.31, 32.11 -0.36 M90.19 39.53 C73.26 21.64, 51.92 5.83, 44.15 -0.49 M90.19 39.53 C77.54 25.93, 60.83 13.9, 44.15 -0.49 M102.23 39.39 C91.29 30.73, 75.23 16.31, 56.19 -0.63 M102.23 39.39 C91.17 27.53, 80.73 19.25, 56.19 -0.63 M114.27 39.26 C107.63 28.77, 97.21 26.18, 68.23 -0.76 M114.27 39.26 C106.14 30.45, 93.64 20.56, 68.23 -0.76 M126.31 39.13 C119.09 34.17, 104.13 24.87, 80.28 -0.89 M126.31 39.13 C110.15 25.66, 97.7 13.68, 80.28 -0.89 M138.35 38.99 C122.08 23.79, 108.38 13.41, 93.07 -0.37 M138.35 38.99 C126.89 31.33, 118.52 20.79, 93.07 -0.37 M151.15 39.52 C136.47 22.04, 117.17 14.39, 105.11 -0.5 M151.15 39.52 C134.81 28.01, 118.45 11.15, 105.11 -0.5 M163.19 39.38 C148.2 25.31, 133.05 15.99, 117.15 -0.63 M163.19 39.38 C145.07 24.06, 131.22 10.21, 117.15 -0.63 M175.23 39.25 C154.98 20.84, 135.34 6.76, 129.19 -0.77 M175.23 39.25 C157.6 22.35, 139.71 7.06, 129.19 -0.77 M187.27 39.12 C174.64 35.12, 167.27 26.64, 141.23 -0.9 M187.27 39.12 C176.62 32.46, 166.54 21.72, 141.23 -0.9 M199.31 38.99 C186.37 26.96, 174.71 21.81, 154.03 -0.38 M199.31 38.99 C188.65 31.45, 177.75 20.06, 154.03 -0.38 M212.11 39.51 C202.89 32.91, 193.09 23.03, 166.07 -0.51 M212.11 39.51 C195.68 26.42, 178.64 9.88, 166.07 -0.51 M224.15 39.37 C208.18 22.93, 184.59 4.69, 178.11 -0.64 M224.15 39.37 C214.31 31.6, 205.17 21.83, 178.11 -0.64 M236.19 39.24 C217.24 23.66, 201.25 16.22, 190.15 -0.78 M236.19 39.24 C222.64 27.96, 211.22 17.65, 190.15 -0.78 M248.23 39.11 C236.97 25.06, 220.37 19.24, 202.19 -0.91 M248.23 39.11 C236.16 31.21, 225.69 21.24, 202.19 -0.91 M260.27 38.98 C238.47 23.22, 227.74 12.28, 214.99 -0.39 M260.27 38.98 C245.86 27.85, 229.95 13.04, 214.99 -0.39 M273.07 39.5 C260.13 31.07, 250.51 17.9, 227.03 -0.52 M273.07 39.5 C258.21 28.34, 244.02 16.31, 227.03 -0.52 M285.11 39.37 C264.55 27.98, 251.8 12.65, 239.07 -0.65 M285.11 39.37 C269.83 22.58, 252.32 9.06, 239.07 -0.65 M295.64 37.92 C280.62 24.03, 264.89 7, 251.11 -0.79 M295.64 37.92 C277.94 21.49, 259.56 6.26, 251.11 -0.79 M300.13 31.23 C287.77 18.89, 275.15 7.48, 263.91 -0.26 M300.13 31.23 C288.48 24.58, 280.17 14.52, 263.91 -0.26 M300.1 20.6 C288.76 16.12, 284.29 6.47, 275.95 -0.4 M300.1 20.6 C294.32 17.36, 289.65 9.15, 275.95 -0.4 M299.31 9.31 C294.14 7.83, 294.86 4.94, 287.99 -0.53 M299.31 9.31 C294.68 6.84, 292.25 2.89, 287.99 -0.53" stroke="#a5d8ff" stroke-width="1" fill="none"></path><path d="M10 0 C115.55 1.54, 221.94 -3.57, 290 0 M10 0 C80.92 -0.43, 152.26 0.87, 290 0 M290 0 C298.8 2.94, 302.04 2.46, 300 10 M290 0 C294.11 -1.74, 299.68 1.78, 300 10 M300 10 C298.53 18.54, 297.12 19.88, 300 30 M300 10 C298.3 15.54, 300.56 24.88, 300 30 M300 30 C298.51 39.96, 292.84 38.68, 290 40 M300 30 C299.77 32.76, 300.23 44.28, 290 40 M290 40 C234.47 37.98, 178.78 35.15, 10 40 M290 40 C201.83 36.26, 113.22 36.96, 10 40 M10 40 C1.65 38.52, -1.11 33.61, 0 30 M10 40 C4.5 44.55, -0.62 33.76, 0 30 M0 30 C1.83 22.42, -0.07 23.12, 0 10 M0 30 C1.85 23.88, -1.28 18.56, 0 10 M0 10 C2.52 4.82, 6.66 -3.99, 10 0 M0 10 C-2.37 -0.59, 3.32 3.1, 10 0" stroke="#1971c2" stroke-width="2" fill="none"></path></g><g transform="translate(132.04005432128906 297.5) rotate(0 47.95994567871094 12.5)"><text x="47.95994567871094" y="0" font-family="Virgil, Segoe UI Emoji" font-size="20px" fill="#1971c2" text-anchor="middle" style="white-space: pre;" direction="ltr" dominant-baseline="text-before-edge">Gradients</text></g><g stroke-linecap="round" transform="translate(30 390) rotate(0 150 20)"><path d="M2.66 2.31 C2.66 2.31, 2.66 2.31, 2.66 2.31 M2.66 2.31 C2.66 2.31, 2.66 2.31, 2.66 2.31 M6.08 10.58 C6.65 9.15, 12.95 2.8, 13.29 2.28 M6.08 10.58 C9.01 9.18, 10.67 5.07, 13.29 2.28 M5.55 23.38 C12.11 16.14, 14.26 9.44, 23.92 2.24 M5.55 23.38 C11.61 15.76, 16.61 12.55, 23.92 2.24 M3.06 38.44 C9.72 30.57, 24.27 13.01, 33.9 2.97 M3.06 38.44 C10.23 31.19, 18.41 19.86, 33.9 2.97 M11.07 41.42 C23.43 30.19, 33 16.58, 44.53 2.93 M11.07 41.42 C19.87 30.59, 30.6 22.88, 44.53 2.93 M21.7 41.39 C28.13 31.24, 38.21 22.83, 55.16 2.9 M21.7 41.39 C27.95 33.12, 37.58 24.05, 55.16 2.9 M32.33 41.35 C42.18 29.08, 59.05 15.34, 65.79 2.86 M32.33 41.35 C44.08 26.83, 57.1 12.1, 65.79 2.86 M42.96 41.32 C55.14 32.07, 64.09 18.5, 76.42 2.83 M42.96 41.32 C49 34.02, 59.44 26.35, 76.42 2.83 M53.59 41.28 C63.93 25.16, 81.23 15.43, 87.05 2.79 M53.59 41.28 C62.59 30.69, 70.9 19.75, 87.05 2.79 M64.22 41.25 C75.24 26.58, 82.2 22.02, 97.68 2.76 M64.22 41.25 C72.65 31.55, 80.82 22.87, 97.68 2.76 M74.85 41.21 C90.32 25.37, 96.13 11.76, 108.31 2.72 M74.85 41.21 C81.77 30.34, 91.19 19.69, 108.31 2.72 M85.48 41.18 C100.46 29.45, 105.82 12.5, 118.94 2.69 M85.48 41.18 C97.33 28.23, 107.78 17.09, 118.94 2.69 M96.11 41.14 C102.74 35.46, 110.96 23.95, 129.57 2.65 M96.11 41.14 C104.75 29.66, 111.94 22.41, 129.57 2.65 M106.74 41.11 C115.79 25.02, 126.05 16.13, 140.2 2.62 M106.74 41.11 C118.02 27, 129.71 14.63, 140.2 2.62 M117.37 41.08 C128.87 32.86, 134.16 22.12, 150.83 2.59 M117.37 41.08 C123.45 34.76, 132.7 22.83, 150.83 2.59 M128 41.04 C132.76 33.54, 145.43 21.37, 161.46 2.55 M128 41.04 C135.44 30.21, 143.18 18.55, 161.46 2.55 M138.63 41.01 C151.89 24.18, 161.88 15.12, 172.09 2.52 M138.63 41.01 C150.2 28.62, 162.24 14.94, 172.09 2.52 M149.26 40.97 C154.61 27.48, 165.81 15.53, 182.72 2.48 M149.26 40.97 C163.94 26.6, 174.53 12.65, 182.72 2.48 M159.89 40.94 C169.81 24.13, 187.97 13.82, 193.35 2.45 M159.89 40.94 C170.43 28.57, 176.44 20.02, 193.35 2.45 M170.52 40.9 C174.84 31.33, 185.46 27.09, 203.98 2.41 M170.52 40.9 C178.68 31.09, 189.6 19.69, 203.98 2.41 M181.15 40.87 C190.09 24.14, 203.97 16.31, 214.61 2.38 M181.15 40.87 C188.93 30.78, 196.74 21, 214.61 2.38 M191.78 40.83 C208.03 26.4, 220.71 8.62, 225.24 2.34 M191.78 40.83 C203.36 28.25, 212.3 15.07, 225.24 2.34 M202.41 40.8 C206.07 30.45, 218.2 21.39, 235.87 2.31 M202.41 40.8 C212.32 30.37, 217.81 21.32, 235.87 2.31 M213.04 40.77 C228.32 29.74, 238.91 17.24, 246.5 2.28 M213.04 40.77 C221.82 31.83, 228.03 24.45, 246.5 2.28 M223.01 41.49 C231.37 26.86, 238.4 15.98, 257.13 2.24 M223.01 41.49 C235.62 30.23, 245.03 17.85, 257.13 2.24 M233.64 41.45 C243.2 23.97, 261.75 10.9, 267.1 2.96 M233.64 41.45 C243.41 26.98, 254.56 15.58, 267.1 2.96 M244.27 41.42 C252.16 28.62, 269.59 12.61, 277.73 2.93 M244.27 41.42 C255.88 29.54, 264.42 22.28, 277.73 2.93 M254.9 41.38 C265.88 31.71, 282.13 16.25, 290.33 0.63 M254.9 41.38 C265.96 30.23, 273.33 19.75, 290.33 0.63 M265.53 41.35 C275.06 35.21, 279.8 25.11, 298.34 3.61 M265.53 41.35 C278.8 25.83, 291.09 13.96, 298.34 3.61 M276.16 41.31 C289.81 30.2, 299.87 18.88, 303.72 9.62 M276.16 41.31 C282.44 31.64, 290.75 25.02, 303.72 9.62 M286.79 41.28 C291.07 40.07, 292.69 36.34, 303.85 21.66 M286.79 41.28 C290.64 34.66, 294.79 31.86, 303.85 21.66 M2.13 37.18 C2.13 37.18, 2.13 37.18, 2.13 37.18 M2.13 37.18 C2.13 37.18, 2.13 37.18, 2.13 37.18 M16.44 39.01 C13.43 36.44, 6 33.42, 0.59 25.24 M16.44 39.01 C12.19 32.92, 4.39 30.11, 0.59 25.24 M29.23 39.54 C22.42 32.74, 14.78 22.03, 1.31 15.26 M29.23 39.54 C19.24 30.37, 6.6 21.25, 1.31 15.26 M41.27 39.4 C29.95 31.07, 16.65 15.32, 1.27 4.63 M41.27 39.4 C26.46 27.1, 14.56 14.1, 1.27 4.63 M53.31 39.27 C40.18 27.05, 27.51 19.68, 8.03 -0.09 M53.31 39.27 C40.29 27.98, 30.86 17.71, 8.03 -0.09 M65.35 39.14 C49.07 28.03, 37.4 16.86, 19.32 -0.88 M65.35 39.14 C57.08 29.88, 44.59 20.89, 19.32 -0.88 M77.39 39 C60.45 24.6, 49.47 11.44, 32.11 -0.36 M77.39 39 C63.07 26.68, 48.61 13.39, 32.11 -0.36 M90.19 39.53 C77.32 27.5, 57.01 6.22, 44.15 -0.49 M90.19 39.53 C80.56 27.6, 69.82 18.6, 44.15 -0.49 M102.23 39.39 C88.3 23.37, 64.28 9.17, 56.19 -0.63 M102.23 39.39 C93.08 30.33, 81.22 22.07, 56.19 -0.63 M114.27 39.26 C99.59 30.04, 94.95 24.04, 68.23 -0.76 M114.27 39.26 C104.15 28.87, 92.43 19.34, 68.23 -0.76 M126.31 39.13 C111.01 28.13, 94.6 8.82, 80.28 -0.89 M126.31 39.13 C117.94 31.05, 108.8 20.71, 80.28 -0.89 M138.35 38.99 C128.22 24.11, 114.61 20.54, 93.07 -0.37 M138.35 38.99 C125.26 27.12, 109.7 14.16, 93.07 -0.37 M151.15 39.52 C134.55 28.63, 120.81 10.41, 105.11 -0.5 M151.15 39.52 C138.83 28.43, 129.89 21.16, 105.11 -0.5 M163.19 39.38 C148.32 27.66, 135.42 14.56, 117.15 -0.63 M163.19 39.38 C150.24 27.28, 137.12 16.91, 117.15 -0.63 M175.23 39.25 C158.3 26.68, 143.57 6.13, 129.19 -0.77 M175.23 39.25 C164.23 31.28, 155.01 20.85, 129.19 -0.77 M187.27 39.12 C172.32 25.76, 155.42 9.05, 141.23 -0.9 M187.27 39.12 C171.26 26.4, 150.93 10.95, 141.23 -0.9 M199.31 38.99 C182.36 26.08, 162.87 10.33, 154.03 -0.38 M199.31 38.99 C187.55 28.06, 175.07 17.13, 154.03 -0.38 M212.11 39.51 C198.81 25.12, 183.63 11.75, 166.07 -0.51 M212.11 39.51 C192.46 25.51, 176.57 10.9, 166.07 -0.51 M224.15 39.37 C205.02 20.03, 194.29 5.55, 178.11 -0.64 M224.15 39.37 C209.12 25.86, 195.55 13.46, 178.11 -0.64 M236.19 39.24 C218.7 26.31, 202.45 8.3, 190.15 -0.78 M236.19 39.24 C223.47 26.13, 213.1 16.21, 190.15 -0.78 M248.23 39.11 C235.8 22.63, 222.36 16.69, 202.19 -0.91 M248.23 39.11 C230.25 22.51, 212.51 9.16, 202.19 -0.91 M260.27 38.98 C242.59 24.15, 233.07 10.67, 214.99 -0.39 M260.27 38.98 C244.74 25.91, 228.06 10.8, 214.99 -0.39 M273.07 39.5 C267.43 32.64, 257.42 24.15, 227.03 -0.52 M273.07 39.5 C255.76 23.56, 241.22 10.73, 227.03 -0.52 M285.11 39.37 C274.83 30.48, 263.56 14.91, 239.07 -0.65 M285.11 39.37 C272.7 26.98, 260.6 14.27, 239.07 -0.65 M295.64 37.92 C278.67 24.38, 267.28 12.41, 251.11 -0.79 M295.64 37.92 C281.85 28.03, 272.14 18.75, 251.11 -0.79 M300.13 31.23 C296.2 24.38, 286.28 19.19, 263.91 -0.26 M300.13 31.23 C288.78 22.86, 279.36 13.5, 263.91 -0.26 M300.1 20.6 C297.22 17.02, 287.64 9.69, 275.95 -0.4 M300.1 20.6 C293.24 13.14, 285.13 5.1, 275.95 -0.4 M299.31 9.31 C299.13 6.14, 295.89 2.48, 287.99 -0.53 M299.31 9.31 C297.35 6.73, 294.47 3.95, 287.99 -0.53" stroke="#a5d8ff" stroke-width="1" fill="none"></path><path d="M10 0 C80.72 3.45, 156.88 1.59, 290 0 M10 0 C84.91 -4.55, 162.2 -5.16, 290 0 M290 0 C293.35 2.04, 299.8 7.26, 300 10 M290 0 C299.28 -4.27, 297.51 2.59, 300 10 M300 10 C301.34 11.66, 300.35 18.95, 300 30 M300 10 C299.5 18.3, 299.96 24.58, 300 30 M300 30 C298.82 40.02, 296.7 41.03, 290 40 M300 30 C299.84 38.31, 300.55 37.48, 290 40 M290 40 C203.82 43.78, 125.07 42.51, 10 40 M290 40 C234.07 38.31, 174.58 39.9, 10 40 M10 40 C1.34 42.24, -1.15 37.85, 0 30 M10 40 C6.79 42.02, -3.87 32.66, 0 30 M0 30 C1.38 23.31, -0.53 15.08, 0 10 M0 30 C0.45 24.54, 2.17 18.85, 0 10 M0 10 C-0.67 4.76, 0.82 0.33, 10 0 M0 10 C-4.2 7.01, -0.21 -4.45, 10 0" stroke="#1971c2" stroke-width="2" fill="none"></path></g><g transform="translate(123.10006713867188 397.5) rotate(0 56.899932861328125 12.5)"><text x="56.899932861328125" y="0" font-family="Virgil, Segoe UI Emoji" font-size="20px" fill="#1971c2" text-anchor="middle" style="white-space: pre;" direction="ltr" dominant-baseline="text-before-edge">Parameters</text></g><g mask="url(#mask-arEQZSQvN_liXYVb2yHwU)" stroke-linecap="round"><g transform="translate(170 330) rotate(0 0 29)"><path d="M0.09 -0.91 C0.11 8.44, -0.09 47.44, 0.05 57.31 M-1.32 1.23 C-1.45 11.23, -1.2 48.73, -0.86 58.49" stroke="#868e96" stroke-width="2" fill="none"></path></g><g transform="translate(170 330) rotate(0 0 29)"><path d="M-9.85 35.16 C-8.48 42.12, -5.46 50.52, -0.86 58.49 M-9.85 35.16 C-7.19 43.37, -4 49.7, -0.86 58.49" stroke="#868e96" stroke-width="2" fill="none"></path></g><g transform="translate(170 330) rotate(0 0 29)"><path d="M7.25 34.85 C3.58 41.91, 1.56 50.4, -0.86 58.49 M7.25 34.85 C4.34 43.23, 1.95 49.67, -0.86 58.49" stroke="#868e96" stroke-width="2" fill="none"></path></g></g><mask id="mask-arEQZSQvN_liXYVb2yHwU"><rect x="0" y="0" fill="#fff" width="270" height="488"></rect><rect x="142.72794342041016" y="349" fill="#000" width="54.54411315917969" height="20" opacity="1"></rect></mask><g transform="translate(142.72794342041016 349) rotate(0 26.637313670894912 9.791835731216736)"><text x="27.272056579589844" y="0" font-family="Virgil, Segoe UI Emoji" font-size="16px" fill="#868e96" text-anchor="middle" style="white-space: pre;" direction="ltr" dominant-baseline="text-before-edge">update</text></g><g mask="url(#mask-J558khU8v4ERth7Lctsfc)" stroke-linecap="round"><g transform="translate(489 90) rotate(0 -154.60719491240945 95.52638601760015)"><path d="M-0.4 0.69 C-16.63 1, -58.69 -5.51, -98.44 0.82 C-138.2 7.15, -203.54 6.49, -238.94 38.67 C-274.33 70.86, -298.71 167.91, -310.8 193.95 M1.59 0.01 C-14.65 0.08, -58.95 -7.01, -99.1 -0.87 C-139.26 5.27, -204.06 4.3, -239.34 36.85 C-274.62 69.4, -299.01 168.05, -310.76 194.43" stroke="#868e96" stroke-width="2" fill="none"></path></g><g transform="translate(489 90) rotate(0 -154.60719491240945 95.52638601760015)"><path d="M-311.01 169.43 C-310.03 175.59, -309.76 181.04, -310.76 194.43 M-311.01 169.43 C-311.9 178.81, -310.01 188.84, -310.76 194.43" stroke="#868e96" stroke-width="2" fill="none"></path></g><g transform="translate(489 90) rotate(0 -154.60719491240945 95.52638601760015)"><path d="M-294.88 175.12 C-297.22 180.03, -300.33 184.29, -310.76 194.43 M-294.88 175.12 C-301.93 182.16, -306.22 190.01, -310.76 194.43" stroke="#868e96" stroke-width="2" fill="none"></path></g></g><mask id="mask-J558khU8v4ERth7Lctsfc"><rect x="0" y="0" fill="#fff" width="899.4079640819673" height="385.13139720814416"></rect><rect x="299.51822440798105" y="88.38902590191759" fill="#000" width="33.56806945800781" height="20" opacity="1"></rect></mask><g transform="translate(299.51822440798105 88.38902590191759) rotate(0 34.874580679609494 97.13736011568255)"><text x="16.784034729003906" y="0" font-family="Virgil, Segoe UI Emoji" font-size="16px" fill="#868e96" text-anchor="middle" style="white-space: pre;" direction="ltr" dominant-baseline="text-before-edge">push</text></g><g stroke-linecap="round" transform="translate(470 10) rotate(0 120 160)"><path d="M32 0 C73.45 -1.86, 118.86 -4.41, 208 0 M32 0 C77.02 -4.42, 119.97 -4.72, 208 0 M208 0 C227.33 1.59, 236.33 12.93, 240 32 M208 0 C226.57 3.93, 237.26 10.3, 240 32 M240 32 C240.01 127.5, 238.27 225.15, 240 288 M240 32 C241.95 114.99, 241.84 199.34, 240 288 M240 288 C236.05 309.73, 231.13 323.43, 208 320 M240 288 C236.83 308.75, 227.31 320.94, 208 320 M208 320 C164.67 316.92, 117.7 319.88, 32 320 M208 320 C138.02 319.19, 70.22 320.13, 32 320 M32 320 C12.27 322.07, -2.93 308.43, 0 288 M32 320 C11.43 319.88, 2.94 304.8, 0 288 M0 288 C-5.32 200.13, -1.31 117.43, 0 32 M0 288 C-3.09 200.66, -4.08 117.11, 0 32 M0 32 C-2.35 6.75, 8.03 3.13, 32 0 M0 32 C0.1 8.54, 6.66 2.1, 32 0" stroke="#f08c00" stroke-width="2" fill="none"></path></g><g transform="translate(490 30) rotate(0 39.64995574951172 12.5)"><text x="0" y="0" font-family="Virgil, Segoe UI Emoji" font-size="20px" fill="#f08c00" text-anchor="start" style="white-space: pre;" direction="ltr" dominant-baseline="text-before-edge">Worker 1</text></g><g stroke-linecap="round" transform="translate(490 230) rotate(0 100 40)"><path d="M2.85 7.77 C2.85 7.77, 2.85 7.77, 2.85 7.77 M2.85 7.77 C2.85 7.77, 2.85 7.77, 2.85 7.77 M1.01 22.08 C4.85 12.52, 16.54 5.13, 20.04 0.19 M1.01 22.08 C9.21 13.53, 11.95 8.58, 20.04 0.19 M1.14 34.12 C14.47 24.75, 23.7 11.32, 30.67 0.16 M1.14 34.12 C15.18 20.36, 23.24 7.51, 30.67 0.16 M1.28 46.16 C15.14 26.4, 31.82 9.48, 41.3 0.12 M1.28 46.16 C12.77 34.26, 21.74 22.87, 41.3 0.12 M0.75 58.96 C17.99 45.05, 31.77 24.34, 51.93 0.09 M0.75 58.96 C18.99 37.56, 33.01 17.31, 51.93 0.09 M2.86 68.73 C14.74 58.59, 25.6 42.85, 62.56 0.05 M2.86 68.73 C19.34 50.96, 34.64 30.58, 62.56 0.05 M6.93 76.25 C27.75 50.1, 49.33 24.67, 72.53 0.77 M6.93 76.25 C19.15 59.91, 31.29 47.07, 72.53 0.77 M15.59 78.48 C32.18 62.82, 45.37 46.53, 83.16 0.74 M15.59 78.48 C29.86 63.74, 43.79 44.63, 83.16 0.74 M25.56 79.2 C43.56 62.02, 60.95 45.65, 93.79 0.71 M25.56 79.2 C45.06 52.79, 67.13 30.7, 93.79 0.71 M36.19 79.16 C61.45 48.61, 80.77 18.68, 104.42 0.67 M36.19 79.16 C51.88 62.09, 70.25 42.5, 104.42 0.67 M46.82 79.13 C67.27 53.88, 87.77 30.04, 115.05 0.64 M46.82 79.13 C65.13 58.63, 83.67 35.03, 115.05 0.64 M57.45 79.09 C74.64 60.95, 95.68 33.47, 125.68 0.6 M57.45 79.09 C76.05 52.5, 100 31.28, 125.68 0.6 M68.08 79.06 C85.92 58.62, 107.22 32.71, 135.66 1.32 M68.08 79.06 C87.96 55.05, 110.61 33.72, 135.66 1.32 M78.71 79.02 C102.77 50.38, 122.36 29.22, 146.29 1.29 M78.71 79.02 C96.17 56.14, 118.56 37.19, 146.29 1.29 M88.69 79.74 C103.08 61.12, 127.51 41.12, 156.92 1.25 M88.69 79.74 C104.49 59.91, 126.16 38.08, 156.92 1.25 M99.32 79.71 C121.16 54.91, 141.34 25.72, 167.55 1.22 M99.32 79.71 C128.28 48.38, 155.96 18.74, 167.55 1.22 M109.95 79.67 C133.61 56.8, 156.36 26.13, 178.18 1.18 M109.95 79.67 C127.15 58.99, 147.62 35.32, 178.18 1.18 M120.58 79.64 C135.91 60.03, 156.52 35.79, 188.81 1.15 M120.58 79.64 C132.5 64.03, 146.64 48.43, 188.81 1.15 M131.21 79.61 C150.04 57.99, 174.49 35.39, 195.5 5.64 M131.21 79.61 C153.85 54.72, 176.85 27.96, 195.5 5.64 M141.84 79.57 C156.6 60.65, 182.42 32.84, 199.57 13.16 M141.84 79.57 C156.47 65.77, 169.49 48.23, 199.57 13.16 M152.47 79.54 C165.25 70.01, 171.68 57.64, 199.7 25.2 M152.47 79.54 C164.59 67.42, 173.44 54.23, 199.7 25.2 M162.44 80.26 C179.39 62.3, 192.11 48.51, 199.84 37.24 M162.44 80.26 C176.2 64.96, 188.19 51.2, 199.84 37.24 M173.07 80.22 C179.72 72.75, 184.36 68.11, 199.31 50.03 M173.07 80.22 C181.3 72.52, 185.29 64.31, 199.31 50.03 M183.7 80.19 C189.64 73.62, 195.35 67.22, 199.45 62.07 M183.7 80.19 C189.28 74.35, 195.85 67.07, 199.45 62.07 M5.02 75.01 C5.02 75.01, 5.02 75.01, 5.02 75.01 M5.02 75.01 C5.02 75.01, 5.02 75.01, 5.02 75.01 M20.83 78.16 C16.12 73.18, 10.33 73.55, 0.45 60.45 M20.83 78.16 C15.67 73.54, 8.19 68.39, 0.45 60.45 M33.63 78.68 C18.64 68.64, 3.48 54.37, 0.42 49.82 M33.63 78.68 C24.17 67.26, 12.43 60.79, 0.42 49.82 M45.67 78.55 C35.45 70.41, 24.83 58.44, 0.38 39.19 M45.67 78.55 C32.51 64.59, 16.78 54.14, 0.38 39.19 M57.71 78.42 C40.19 66.79, 24.63 45.42, 0.35 28.56 M57.71 78.42 C38.7 59.68, 15.47 41.27, 0.35 28.56 M70.5 78.94 C40.04 57.42, 14.34 29.73, 0.32 17.93 M70.5 78.94 C49.58 62.45, 31.33 42.54, 0.32 17.93 M82.54 78.81 C61.87 62.99, 43.93 37.82, 2.55 9.27 M82.54 78.81 C64.98 62.68, 49.36 51.31, 2.55 9.27 M94.59 78.67 C63.92 53.72, 36.54 21.4, 7.79 3.23 M94.59 78.67 C62.5 48.96, 31.12 22.31, 7.79 3.23 M107.38 79.2 C79.84 59.2, 56.85 38.59, 16.82 0.47 M107.38 79.2 C84.58 59.39, 62.24 40.2, 16.82 0.47 M119.42 79.06 C81.12 43.06, 46.39 18.03, 28.1 -0.32 M119.42 79.06 C88.63 55.39, 56.09 26.7, 28.1 -0.32 M131.46 78.93 C100.41 47.54, 67.27 20.98, 40.14 -0.45 M131.46 78.93 C106.89 54.86, 84.86 36.03, 40.14 -0.45 M144.26 79.45 C122.93 65.41, 105.98 49.32, 52.94 0.07 M144.26 79.45 C112.38 50.81, 79.42 21.63, 52.94 0.07 M156.3 79.32 C132.98 56.81, 118.68 42.12, 64.98 -0.06 M156.3 79.32 C130.83 56.18, 108.43 34.92, 64.98 -0.06 M168.34 79.19 C138.99 59.21, 107.9 29.51, 77.02 -0.2 M168.34 79.19 C149.6 60.12, 127.27 41.8, 77.02 -0.2 M180.38 79.05 C157.25 61.99, 131.16 36.22, 89.82 0.33 M180.38 79.05 C158.2 59.59, 131.67 37.33, 89.82 0.33 M190.16 76.95 C162.93 54.18, 130.33 22.05, 101.86 0.19 M190.16 76.95 C163.43 52.61, 134.68 30.66, 101.86 0.19 M196.16 71.57 C164.73 39.71, 133 13.69, 113.9 0.06 M196.16 71.57 C176.38 56.1, 153.08 37.78, 113.9 0.06 M199.15 63.57 C177.18 41.17, 156.89 29.22, 126.69 0.58 M199.15 63.57 C171.32 38.84, 142.84 13.28, 126.69 0.58 M199.11 52.94 C182.79 34.95, 156.24 18.66, 138.73 0.45 M199.11 52.94 C186.54 42.5, 174.43 33, 138.73 0.45 M199.08 42.31 C181.35 30.53, 176.11 21.69, 150.77 0.32 M199.08 42.31 C189.64 34.13, 180.02 25.41, 150.77 0.32 M199.8 32.33 C193.42 26.69, 177.66 18.35, 163.57 0.84 M199.8 32.33 C187.42 18.28, 170.02 7.92, 163.57 0.84 M199.76 21.7 C193.97 13.51, 185.9 12.08, 175.61 0.71 M199.76 21.7 C196.7 18.6, 191.36 11.68, 175.61 0.71 M196.71 8.45 C195.76 7.95, 191.94 6.07, 187.65 0.57 M196.71 8.45 C194.41 6.29, 190.3 1.93, 187.65 0.57" stroke="#ffec99" stroke-width="1" fill="none"></path><path d="M20 0 C62.53 6.58, 112.29 3.65, 180 0 M20 0 C56.35 3.4, 92.86 3.74, 180 0 M180 0 C190.93 3.41, 197.62 6.35, 200 20 M180 0 C197.17 -0.61, 196.62 7.47, 200 20 M200 20 C200.86 29.81, 197.21 39.45, 200 60 M200 20 C198.38 29.22, 201.25 39.77, 200 60 M200 60 C197.24 72.83, 191.57 80.82, 180 80 M200 60 C198.31 71.78, 190.98 83.43, 180 80 M180 80 C140.56 83.87, 93.33 77.41, 20 80 M180 80 C133.22 82.46, 83.38 80.97, 20 80 M20 80 C7.33 79.9, 2.56 69.39, 0 60 M20 80 C8.4 83.91, 1.34 70.76, 0 60 M0 60 C0.87 52.66, -0.37 39.3, 0 20 M0 60 C-0.65 49.67, -0.79 44.82, 0 20 M0 20 C0.09 4.82, 3.18 1.82, 20 0 M0 20 C0.81 7.01, 4.75 1.14, 20 0" stroke="#f08c00" stroke-width="2" fill="none"></path></g><g transform="translate(563.2100296020508 257.5) rotate(0 26.78997039794922 12.5)"><text x="26.78997039794922" y="0" font-family="Virgil, Segoe UI Emoji" font-size="20px" fill="#f08c00" text-anchor="middle" style="white-space: pre;" direction="ltr" dominant-baseline="text-before-edge">Data</text></g><g stroke-linecap="round" transform="translate(490 170) rotate(0 100 20)"><path d="M2.66 2.31 C2.66 2.31, 2.66 2.31, 2.66 2.31 M2.66 2.31 C2.66 2.31, 2.66 2.31, 2.66 2.31 M0.83 16.62 C5.75 14.17, 6.87 12.51, 14.6 0.77 M0.83 16.62 C6.08 14.55, 8.94 10.13, 14.6 0.77 M0.96 28.66 C14.24 13.82, 22.48 9.76, 25.23 0.74 M0.96 28.66 C10.28 19.88, 17.34 11.19, 25.23 0.74 M3.72 37.68 C10.86 25.75, 17.78 19.01, 35.86 0.7 M3.72 37.68 C12.89 27.15, 21.77 17.98, 35.86 0.7 M12.38 39.91 C24.79 27.83, 38.18 16.23, 46.49 0.67 M12.38 39.91 C19.98 31.93, 28.86 20.56, 46.49 0.67 M23.01 39.88 C34.6 28.87, 48.22 13.41, 57.12 0.63 M23.01 39.88 C36.06 25.74, 46.59 10.94, 57.12 0.63 M33.64 39.84 C39.06 32.17, 49.67 19.3, 67.75 0.6 M33.64 39.84 C38.87 32.37, 48.75 25.74, 67.75 0.6 M44.27 39.81 C50.69 27.43, 65.67 15.63, 78.38 0.56 M44.27 39.81 C55.77 26.37, 68.05 12.01, 78.38 0.56 M54.9 39.77 C65.04 29.76, 73.67 12.9, 88.36 1.28 M54.9 39.77 C64.57 31.92, 72.42 22.16, 88.36 1.28 M65.53 39.74 C72.76 30.19, 84.02 18.26, 98.99 1.25 M65.53 39.74 C78.91 25.8, 89.64 8.53, 98.99 1.25 M76.16 39.7 C85.22 31.93, 92.01 18.84, 109.62 1.21 M76.16 39.7 C86.34 28.13, 97.21 14.98, 109.62 1.21 M86.79 39.67 C99.74 27, 114.51 7.01, 120.25 1.18 M86.79 39.67 C93.57 30.82, 101.73 21.37, 120.25 1.18 M97.42 39.64 C108.78 25.64, 118.83 11.45, 130.88 1.15 M97.42 39.64 C106.3 28.83, 113.83 19.94, 130.88 1.15 M107.39 40.36 C114.74 32.75, 120.17 20.03, 141.51 1.11 M107.39 40.36 C113.39 32.48, 119.92 21.37, 141.51 1.11 M118.02 40.32 C127.14 28.34, 136.97 10.51, 152.14 1.08 M118.02 40.32 C128.46 29.02, 140.16 16.34, 152.14 1.08 M128.65 40.29 C145.15 23.71, 153.71 14.48, 162.77 1.04 M128.65 40.29 C138.25 29.22, 144.76 18.34, 162.77 1.04 M139.28 40.25 C152.01 28.4, 163.13 7.77, 173.4 1.01 M139.28 40.25 C151.29 26.23, 166.16 10.31, 173.4 1.01 M149.91 40.22 C158.24 29.36, 170.54 10.83, 184.03 0.97 M149.91 40.22 C158.63 30.02, 167.9 20.33, 184.03 0.97 M160.54 40.18 C173.28 27.32, 186.74 14.93, 194.66 0.94 M160.54 40.18 C173.41 27.25, 186.01 8.79, 194.66 0.94 M171.17 40.15 C179.11 27.78, 189.87 17.53, 199.39 7.7 M171.17 40.15 C178.39 30.4, 190.14 20.73, 199.39 7.7 M181.8 40.11 C186.02 36.19, 194.49 28.6, 199.52 19.74 M181.8 40.11 C189.01 33.5, 195.36 28.16, 199.52 19.74 M192.43 40.08 C194.95 39.69, 195.36 37.87, 199.65 31.78 M192.43 40.08 C193.81 37.86, 195.88 35.72, 199.65 31.78 M5.57 39.32 C5.57 39.32, 5.57 39.32, 5.57 39.32 M5.57 39.32 C5.57 39.32, 5.57 39.32, 5.57 39.32 M17.61 39.19 C13.24 36.5, 7.04 30.59, 1 24.76 M17.61 39.19 C12.4 33.06, 6.63 28.91, 1 24.76 M30.4 39.71 C21.19 27.77, 7 23.06, 0.21 13.47 M30.4 39.71 C19.51 32.32, 10.46 22.48, 0.21 13.47 M42.44 39.58 C32.19 28.87, 18.77 23.14, 1.69 4.15 M42.44 39.58 C29.38 28.93, 14.18 13.93, 1.69 4.15 M54.48 39.45 C41.49 23.99, 24.07 15.5, 9.2 0.08 M54.48 39.45 C43.02 33.05, 34.86 23.08, 9.2 0.08 M66.53 39.31 C54.26 25.73, 39.39 17.4, 21.24 -0.05 M66.53 39.31 C55.42 30.7, 45.13 20.69, 21.24 -0.05 M79.32 39.84 C64.66 20.46, 48.03 11.96, 33.28 -0.18 M79.32 39.84 C69.9 31.11, 57.14 18.37, 33.28 -0.18 M91.36 39.7 C75.8 26.18, 60.4 10.2, 45.32 -0.32 M91.36 39.7 C74.53 23.22, 59.61 10.89, 45.32 -0.32 M103.4 39.57 C82.07 23.55, 67.59 6.13, 57.37 -0.45 M103.4 39.57 C94.66 30.07, 82.22 21.72, 57.37 -0.45 M115.44 39.44 C100.86 25.87, 80.48 9.93, 70.16 0.07 M115.44 39.44 C104.91 31.68, 95.29 20.47, 70.16 0.07 M128.24 39.96 C112.07 30.38, 99.8 16.18, 82.2 -0.06 M128.24 39.96 C117.05 30.84, 100.78 17.61, 82.2 -0.06 M140.28 39.83 C131.07 33.62, 122.45 23.82, 94.24 -0.19 M140.28 39.83 C124.73 23.59, 106.16 10.04, 94.24 -0.19 M152.32 39.69 C140.17 32.54, 127.74 21.25, 107.04 0.33 M152.32 39.69 C140.32 31.46, 131.04 21.84, 107.04 0.33 M165.12 40.22 C150.08 21.8, 127.22 10.4, 119.08 0.2 M165.12 40.22 C145.89 24.31, 128.97 8.91, 119.08 0.2 M177.16 40.08 C165.92 27.76, 153.08 20.14, 131.12 0.06 M177.16 40.08 C161.1 28.15, 146.77 13.71, 131.12 0.06 M189.2 39.95 C169.15 20.99, 150.1 11.61, 143.16 -0.07 M189.2 39.95 C171.27 27.78, 157.04 12.31, 143.16 -0.07 M198.22 37.19 C182.13 23.38, 171.5 13.41, 155.96 0.45 M198.22 37.19 C187.06 24.08, 172.93 15.1, 155.96 0.45 M199.7 27.88 C188.28 17.94, 175.21 8.72, 168 0.32 M199.7 27.88 C192.4 19.66, 179.72 12.8, 168 0.32 M199.66 17.25 C192.78 13.23, 191.32 10.72, 180.04 0.19 M199.66 17.25 C191.93 11.66, 183.52 3.71, 180.04 0.19 M199.63 6.62 C199.66 6.12, 195.46 4.12, 192.08 0.06 M199.63 6.62 C197.68 5.19, 195.07 3.56, 192.08 0.06" stroke="#ffec99" stroke-width="1" fill="none"></path><path d="M10 0 C78.53 -3.18, 149.13 -2.81, 190 0 M10 0 C69.95 -0.33, 131.11 -2.2, 190 0 M190 0 C200 -0.53, 197.06 4.03, 200 10 M190 0 C192.89 -1.69, 195.5 4.66, 200 10 M200 10 C196.78 18.3, 197.17 19.15, 200 30 M200 10 C198.8 15.95, 199.3 22.81, 200 30 M200 30 C198.53 35.31, 194.62 42.98, 190 40 M200 30 C198.53 39.35, 198.6 43.98, 190 40 M190 40 C124.53 32.95, 61.05 38.06, 10 40 M190 40 C127 39.14, 64.61 37.21, 10 40 M10 40 C4.84 43.4, 1.16 34.43, 0 30 M10 40 C1.34 43.14, 3.38 38.3, 0 30 M0 30 C-3.65 19.91, 2.11 12.72, 0 10 M0 30 C0.31 25.03, -1.48 22.83, 0 10 M0 10 C0.71 3.63, 1.67 0.99, 10 0 M0 10 C-1.21 3.73, 3.56 -0.52, 10 0" stroke="#f08c00" stroke-width="2" fill="none"></path></g><g transform="translate(533.1000671386719 177.5) rotate(0 56.899932861328125 12.5)"><text x="56.899932861328125" y="0" font-family="Virgil, Segoe UI Emoji" font-size="20px" fill="#f08c00" text-anchor="middle" style="white-space: pre;" direction="ltr" dominant-baseline="text-before-edge">Parameters</text></g><g stroke-linecap="round" transform="translate(490 70) rotate(0 100 20)"><path d="M2.66 2.31 C2.66 2.31, 2.66 2.31, 2.66 2.31 M2.66 2.31 C2.66 2.31, 2.66 2.31, 2.66 2.31 M0.83 16.62 C3.18 7.29, 12.83 8.98, 14.6 0.77 M0.83 16.62 C8.08 10.48, 13.33 5.68, 14.6 0.77 M0.96 28.66 C5.76 18.81, 12.04 19.41, 25.23 0.74 M0.96 28.66 C6.57 20.89, 13.72 12.57, 25.23 0.74 M3.72 37.68 C11.53 25.98, 20.98 18.57, 35.86 0.7 M3.72 37.68 C14.97 27.17, 22.72 14.61, 35.86 0.7 M12.38 39.91 C21.02 23.21, 30.93 10.46, 46.49 0.67 M12.38 39.91 C27.59 24.48, 39.83 9.02, 46.49 0.67 M23.01 39.88 C38.65 24.33, 49.03 10.52, 57.12 0.63 M23.01 39.88 C32.91 27.46, 43.11 14.67, 57.12 0.63 M33.64 39.84 C42.49 23.62, 59.43 7.4, 67.75 0.6 M33.64 39.84 C44.61 28.08, 55.32 11.91, 67.75 0.6 M44.27 39.81 C57.46 28.36, 61.66 13.65, 78.38 0.56 M44.27 39.81 C56.73 27.87, 69.49 12.83, 78.38 0.56 M54.9 39.77 C63.96 23.77, 81.9 16.09, 88.36 1.28 M54.9 39.77 C66.72 22.85, 78.9 8.42, 88.36 1.28 M65.53 39.74 C79.58 30.5, 88.58 17.61, 98.99 1.25 M65.53 39.74 C78.83 23.69, 92.75 9.64, 98.99 1.25 M76.16 39.7 C90.22 24.65, 99.73 9.3, 109.62 1.21 M76.16 39.7 C88.31 28.4, 95.77 16.14, 109.62 1.21 M86.79 39.67 C94.66 29.2, 112.08 13.49, 120.25 1.18 M86.79 39.67 C98.07 28.32, 106.62 15.66, 120.25 1.18 M97.42 39.64 C105.02 31.69, 118.61 20.52, 130.88 1.15 M97.42 39.64 C105.42 27.83, 117.13 17.59, 130.88 1.15 M107.39 40.36 C116.1 31.33, 133.98 13.03, 141.51 1.11 M107.39 40.36 C120.84 28.51, 133.5 11.93, 141.51 1.11 M118.02 40.32 C130.09 31.25, 139.48 16.27, 152.14 1.08 M118.02 40.32 C129.53 26.35, 138.93 16.84, 152.14 1.08 M128.65 40.29 C135.68 34.7, 146.07 23.45, 162.77 1.04 M128.65 40.29 C141.22 27.97, 149.79 16.55, 162.77 1.04 M139.28 40.25 C155.08 24.67, 166 9.93, 173.4 1.01 M139.28 40.25 C150.72 28.14, 159.93 13.57, 173.4 1.01 M149.91 40.22 C161.42 24.99, 174.82 11.18, 184.03 0.97 M149.91 40.22 C159.34 31.8, 168.34 20.71, 184.03 0.97 M160.54 40.18 C173.95 31.13, 182.05 16.09, 194.66 0.94 M160.54 40.18 C175.74 26.67, 186.54 8.39, 194.66 0.94 M171.17 40.15 C181.46 32.14, 185.6 16.54, 199.39 7.7 M171.17 40.15 C181.29 28.79, 190.06 17.79, 199.39 7.7 M181.8 40.11 C190.37 30.56, 196.97 25.9, 199.52 19.74 M181.8 40.11 C186.08 34.93, 192.46 27.59, 199.52 19.74 M192.43 40.08 C194.24 37.92, 197.88 32.94, 199.65 31.78 M192.43 40.08 C194.68 36.95, 197.7 34.6, 199.65 31.78 M5.57 39.32 C5.57 39.32, 5.57 39.32, 5.57 39.32 M5.57 39.32 C5.57 39.32, 5.57 39.32, 5.57 39.32 M17.61 39.19 C14.71 33.06, 6.97 30.99, 1 24.76 M17.61 39.19 C13.55 35.96, 8.02 32.09, 1 24.76 M30.4 39.71 C25.32 32, 15.7 25.63, 0.21 13.47 M30.4 39.71 C18.93 29.6, 9.94 20.74, 0.21 13.47 M42.44 39.58 C34.41 31.94, 24.99 25.36, 1.69 4.15 M42.44 39.58 C27.21 24.4, 10.64 13.42, 1.69 4.15 M54.48 39.45 C40.35 30.15, 35.1 16.9, 9.2 0.08 M54.48 39.45 C37.98 23.71, 19.19 10.65, 9.2 0.08 M66.53 39.31 C51.64 29.55, 43.61 17.96, 21.24 -0.05 M66.53 39.31 C53.19 27.48, 35.46 15.47, 21.24 -0.05 M79.32 39.84 C66.62 31.15, 57.25 26.66, 33.28 -0.18 M79.32 39.84 C63.1 22.79, 43.63 9.11, 33.28 -0.18 M91.36 39.7 C78.79 27.7, 58.73 12.64, 45.32 -0.32 M91.36 39.7 C82.7 32.72, 69.7 20.67, 45.32 -0.32 M103.4 39.57 C87.6 24.67, 79.58 18.08, 57.37 -0.45 M103.4 39.57 C93.58 30.73, 79.23 20.61, 57.37 -0.45 M115.44 39.44 C96.86 26.36, 83.03 11.01, 70.16 0.07 M115.44 39.44 C100.34 22.94, 84.13 9.89, 70.16 0.07 M128.24 39.96 C109.63 27.4, 92.82 13.81, 82.2 -0.06 M128.24 39.96 C109.06 24.48, 93.97 8.67, 82.2 -0.06 M140.28 39.83 C126.49 23.51, 106.21 14.41, 94.24 -0.19 M140.28 39.83 C127.4 30.24, 116.79 19.14, 94.24 -0.19 M152.32 39.69 C133.39 28.95, 120.91 7.99, 107.04 0.33 M152.32 39.69 C141.3 26.6, 127.72 16.82, 107.04 0.33 M165.12 40.22 C158.95 33.99, 149.38 20.68, 119.08 0.2 M165.12 40.22 C153.48 31.94, 144.94 21.1, 119.08 0.2 M177.16 40.08 C170.1 34.64, 162.53 23.61, 131.12 0.06 M177.16 40.08 C162.4 25.27, 144.21 11.25, 131.12 0.06 M189.2 39.95 C182.43 33.14, 172.96 21.38, 143.16 -0.07 M189.2 39.95 C171.58 24.63, 151.19 8.67, 143.16 -0.07 M198.22 37.19 C185.35 23.22, 169.42 17.6, 155.96 0.45 M198.22 37.19 C190.79 27.68, 177.8 20.95, 155.96 0.45 M199.7 27.88 C188.78 19.6, 182.35 13.87, 168 0.32 M199.7 27.88 C190.82 21.53, 183.77 12.72, 168 0.32 M199.66 17.25 C197.39 8.71, 190.65 6.5, 180.04 0.19 M199.66 17.25 C191.24 11.18, 187.55 7.07, 180.04 0.19 M199.63 6.62 C197.06 3.54, 192.83 2.64, 192.08 0.06 M199.63 6.62 C196.68 3.56, 194.09 1.08, 192.08 0.06" stroke="#ffec99" stroke-width="1" fill="none"></path><path d="M10 0 C54.91 -1.86, 98.91 -0.6, 190 0 M10 0 C81.03 0.02, 147.26 0.64, 190 0 M190 0 C193.38 -1.47, 196.09 4.49, 200 10 M190 0 C197.93 -2.87, 202.33 -0.09, 200 10 M200 10 C200.14 18.68, 203.17 20.99, 200 30 M200 10 C199.09 15.07, 198.8 22.98, 200 30 M200 30 C198.73 39, 198.35 43.46, 190 40 M200 30 C202.9 35.67, 192.14 39.88, 190 40 M190 40 C153.86 38.51, 112.66 42.11, 10 40 M190 40 C137.21 38.15, 83.48 35.33, 10 40 M10 40 C1.6 42.73, 2.94 38.08, 0 30 M10 40 C6.7 40.2, -0.2 32.49, 0 30 M0 30 C-4.13 22.67, 2.91 20.71, 0 10 M0 30 C0.7 25.07, -0.48 20.34, 0 10 M0 10 C-1.05 3.68, 3.53 -0.45, 10 0 M0 10 C0.14 -0.94, 4.9 0.59, 10 0" stroke="#f08c00" stroke-width="2" fill="none"></path></g><g transform="translate(542.0400543212891 77.5) rotate(0 47.95994567871094 12.5)"><text x="47.95994567871094" y="0" font-family="Virgil, Segoe UI Emoji" font-size="20px" fill="#f08c00" text-anchor="middle" style="white-space: pre;" direction="ltr" dominant-baseline="text-before-edge">Gradients</text></g><g stroke-linecap="round"><g transform="translate(590 230) rotate(0 0 -10)"><path d="M-0.18 -0.52 C-0.18 -3.81, 0.46 -16.66, 0.44 -19.87 M0.72 0.41 C0.66 -3.05, 0.21 -17.24, 0.23 -20.77" stroke="#868e96" stroke-width="2" fill="none"></path></g><g transform="translate(590 230) rotate(0 0 -10)"><path d="M3.8 -11.43 C2.01 -14.51, 1.27 -18.68, 0.23 -20.77 M3.8 -11.43 C2.41 -14.53, 1.29 -17.78, 0.23 -20.77" stroke="#868e96" stroke-width="2" fill="none"></path></g><g transform="translate(590 230) rotate(0 0 -10)"><path d="M-3.04 -11.32 C-2.29 -14.43, -0.48 -18.64, 0.23 -20.77 M-3.04 -11.32 C-2.12 -14.43, -0.93 -17.71, 0.23 -20.77" stroke="#868e96" stroke-width="2" fill="none"></path></g></g><mask></mask><g mask="url(#mask-rn0ZWAB5yKyaKOKlYf4yz)" stroke-linecap="round"><g transform="translate(590 169) rotate(0 0 -29)"><path d="M0.07 -0.55 C0.12 -10.52, 1.2 -49.55, 1.1 -59.19 M-1.35 1.77 C-1.43 -8.16, 0.76 -48.43, 0.73 -58.28" stroke="#868e96" stroke-width="2" fill="none"></path></g><g transform="translate(590 169) rotate(0 0 -29)"><path d="M8.59 -34.55 C4.67 -41.4, 0.72 -52.8, 0.73 -58.28 M8.59 -34.55 C5.8 -40.91, 4.03 -47.8, 0.73 -58.28" stroke="#868e96" stroke-width="2" fill="none"></path></g><g transform="translate(590 169) rotate(0 0 -29)"><path d="M-8.5 -35.04 C-6.16 -41.73, -3.84 -52.94, 0.73 -58.28 M-8.5 -35.04 C-6.73 -41.2, -3.93 -47.96, 0.73 -58.28" stroke="#868e96" stroke-width="2" fill="none"></path></g></g><mask id="mask-rn0ZWAB5yKyaKOKlYf4yz"><rect x="0" y="0" fill="#fff" width="690" height="327"></rect><rect x="559.1039428710938" y="130" fill="#000" width="61.7921142578125" height="20" opacity="1"></rect></mask><g transform="translate(559.1039428710938 130) rotate(0 30.77242674097681 10.29232548753265)"><text x="30.89605712890625" y="0" font-family="Virgil, Segoe UI Emoji" font-size="16px" fill="#868e96" text-anchor="middle" style="white-space: pre;" direction="ltr" dominant-baseline="text-before-edge">compute</text></g><g stroke-linecap="round" transform="translate(470 350) rotate(0 120 160)"><path d="M32 0 C72.18 -5.09, 113.71 -0.54, 208 0 M32 0 C81.66 -2.03, 130.06 -2.02, 208 0 M208 0 C227.21 -2.67, 240.17 14.58, 240 32 M208 0 C230.73 1.33, 242.64 9.93, 240 32 M240 32 C233.69 101.6, 238.47 166.35, 240 288 M240 32 C241.45 105.09, 241.91 177.3, 240 288 M240 288 C237.62 305.76, 229.19 321.66, 208 320 M240 288 C238.03 306.42, 229.08 321.1, 208 320 M208 320 C147.78 324.7, 80.91 319.42, 32 320 M208 320 C165.73 318.44, 127.26 319.22, 32 320 M32 320 C8.58 316.32, 1.37 307.88, 0 288 M32 320 C6.81 316.79, -2.37 312.16, 0 288 M0 288 C0.16 214.86, -3.25 140.47, 0 32 M0 288 C-3.72 187.69, -4.09 86.86, 0 32 M0 32 C2.13 7.02, 7.11 -1.08, 32 0 M0 32 C4.22 13.49, 9.6 -4.13, 32 0" stroke="#f08c00" stroke-width="2" fill="none"></path></g><g transform="translate(490 370) rotate(0 44.05995178222656 12.5)"><text x="0" y="0" font-family="Virgil, Segoe UI Emoji" font-size="20px" fill="#f08c00" text-anchor="start" style="white-space: pre;" direction="ltr" dominant-baseline="text-before-edge">Worker 2</text></g><g stroke-linecap="round" transform="translate(490 570) rotate(0 100 40)"><path d="M2.85 7.77 C2.85 7.77, 2.85 7.77, 2.85 7.77 M2.85 7.77 C2.85 7.77, 2.85 7.77, 2.85 7.77 M1.01 22.08 C10.16 17.3, 8.92 9.66, 20.04 0.19 M1.01 22.08 C3.41 15.8, 7.74 11.17, 20.04 0.19 M1.14 34.12 C7.42 20.27, 21.99 12.09, 30.67 0.16 M1.14 34.12 C10.44 26.29, 16.63 15.8, 30.67 0.16 M1.28 46.16 C5.93 36.84, 15.73 21.9, 41.3 0.12 M1.28 46.16 C14.79 31.44, 24.37 20.75, 41.3 0.12 M0.75 58.96 C14.66 44.61, 22.82 34.11, 51.93 0.09 M0.75 58.96 C12.05 45.03, 23.39 31.19, 51.93 0.09 M2.86 68.73 C15.69 54.71, 30.65 36.1, 62.56 0.05 M2.86 68.73 C21.2 50.86, 35.14 33.53, 62.56 0.05 M6.93 76.25 C21.74 54.93, 38.03 40.68, 72.53 0.77 M6.93 76.25 C19.23 61.21, 33.59 44.57, 72.53 0.77 M15.59 78.48 C39.85 55.74, 59.41 22.91, 83.16 0.74 M15.59 78.48 C38.12 51.94, 63.75 22.64, 83.16 0.74 M25.56 79.2 C49.13 56.36, 66.03 34.42, 93.79 0.71 M25.56 79.2 C48.19 54.14, 72.36 25.84, 93.79 0.71 M36.19 79.16 C58.84 59.06, 72.87 35.87, 104.42 0.67 M36.19 79.16 C58.91 49.81, 83.58 21.37, 104.42 0.67 M46.82 79.13 C65.65 56.88, 84.48 38.58, 115.05 0.64 M46.82 79.13 C71.77 50.75, 96.06 20.8, 115.05 0.64 M57.45 79.09 C84.3 52.65, 108.56 17.14, 125.68 0.6 M57.45 79.09 C79.24 57.05, 97.61 35.16, 125.68 0.6 M68.08 79.06 C95.82 46.45, 121.08 20.72, 135.66 1.32 M68.08 79.06 C92.49 51.66, 119.57 21.33, 135.66 1.32 M78.71 79.02 C96.85 56.6, 121.7 30.18, 146.29 1.29 M78.71 79.02 C99.96 51.18, 124.38 22.22, 146.29 1.29 M88.69 79.74 C109.32 55.87, 138.14 28.41, 156.92 1.25 M88.69 79.74 C113.58 48.21, 138.25 23.16, 156.92 1.25 M99.32 79.71 C117.84 60.47, 127.29 44.22, 167.55 1.22 M99.32 79.71 C127.7 52.22, 151.78 19.59, 167.55 1.22 M109.95 79.67 C131.28 55.94, 147.59 35.67, 178.18 1.18 M109.95 79.67 C128.56 62.36, 143.68 43.91, 178.18 1.18 M120.58 79.64 C147.05 57.22, 164.8 25.54, 188.81 1.15 M120.58 79.64 C146.94 50.19, 168.01 22.01, 188.81 1.15 M131.21 79.61 C150.15 58.69, 165.01 42, 195.5 5.64 M131.21 79.61 C155.76 53.17, 176.14 25.35, 195.5 5.64 M141.84 79.57 C156.95 63.91, 178.29 38.66, 199.57 13.16 M141.84 79.57 C163.49 54.89, 182.27 36.66, 199.57 13.16 M152.47 79.54 C168.1 65.2, 178.31 54.17, 199.7 25.2 M152.47 79.54 C165.7 64.81, 177.07 50.52, 199.7 25.2 M162.44 80.26 C171.77 71.73, 179.97 60.32, 199.84 37.24 M162.44 80.26 C176.44 66.54, 187.31 54.27, 199.84 37.24 M173.07 80.22 C180.29 73.22, 182.79 60.82, 199.31 50.03 M173.07 80.22 C179.48 69.32, 190.02 61.59, 199.31 50.03 M183.7 80.19 C184.51 74.27, 194.1 74.56, 199.45 62.07 M183.7 80.19 C187.2 73.29, 192.79 66.76, 199.45 62.07 M5.02 75.01 C5.02 75.01, 5.02 75.01, 5.02 75.01 M5.02 75.01 C5.02 75.01, 5.02 75.01, 5.02 75.01 M20.83 78.16 C11.19 77.42, 7.85 64.83, 0.45 60.45 M20.83 78.16 C15.61 71.18, 9.1 65.99, 0.45 60.45 M33.63 78.68 C21.79 73.14, 17.44 67.2, 0.42 49.82 M33.63 78.68 C26.02 71.13, 19.67 65.77, 0.42 49.82 M45.67 78.55 C35.48 63.04, 15.72 58.84, 0.38 39.19 M45.67 78.55 C29.95 63.02, 11.43 50.1, 0.38 39.19 M57.71 78.42 C37.61 61.28, 16.51 45.12, 0.35 28.56 M57.71 78.42 C34.24 59.39, 12.47 38.22, 0.35 28.56 M70.5 78.94 C47.81 63.71, 25.36 44.86, 0.32 17.93 M70.5 78.94 C43.89 55.29, 20.11 34.34, 0.32 17.93 M82.54 78.81 C67.25 66.39, 53.4 50.27, 2.55 9.27 M82.54 78.81 C49.63 50.21, 17.85 26.74, 2.55 9.27 M94.59 78.67 C74.76 58.57, 54.94 48.61, 7.79 3.23 M94.59 78.67 C76.74 61.09, 56.78 45.22, 7.79 3.23 M107.38 79.2 C88.34 65.05, 71.22 47.4, 16.82 0.47 M107.38 79.2 C88.37 63.69, 65.46 42.48, 16.82 0.47 M119.42 79.06 C86.28 51.34, 49 19.15, 28.1 -0.32 M119.42 79.06 C96.31 56.89, 71.64 38.17, 28.1 -0.32 M131.46 78.93 C98.94 53.7, 70.55 23.87, 40.14 -0.45 M131.46 78.93 C103.48 54.45, 76.86 32.35, 40.14 -0.45 M144.26 79.45 C119.6 56.05, 98.29 35.04, 52.94 0.07 M144.26 79.45 C118.74 56.28, 91.45 32.46, 52.94 0.07 M156.3 79.32 C139.35 64.08, 121.95 48.83, 64.98 -0.06 M156.3 79.32 C122.9 51.76, 91.12 25.03, 64.98 -0.06 M168.34 79.19 C149.3 65.69, 132.7 47.78, 77.02 -0.2 M168.34 79.19 C140.03 55.71, 113.89 31.75, 77.02 -0.2 M180.38 79.05 C146.32 50.02, 114.8 15.72, 89.82 0.33 M180.38 79.05 C161.76 62.14, 138.86 40.18, 89.82 0.33 M190.16 76.95 C159.71 53.56, 130.72 26.59, 101.86 0.19 M190.16 76.95 C154.88 46.57, 123.27 14.83, 101.86 0.19 M196.16 71.57 C174.31 53.09, 154.83 37.82, 113.9 0.06 M196.16 71.57 C164.39 45.34, 130.98 15.79, 113.9 0.06 M199.15 63.57 C172.65 38.74, 151.99 23.88, 126.69 0.58 M199.15 63.57 C177.13 43.95, 157.66 26.54, 126.69 0.58 M199.11 52.94 C186.66 43.01, 168.97 24.9, 138.73 0.45 M199.11 52.94 C176.01 34.43, 153.52 15.52, 138.73 0.45 M199.08 42.31 C182.02 29.28, 159.36 10.59, 150.77 0.32 M199.08 42.31 C183.21 29.46, 168.6 16.87, 150.77 0.32 M199.8 32.33 C184.91 23.49, 171.88 13.31, 163.57 0.84 M199.8 32.33 C190.29 22.35, 180.35 13.95, 163.57 0.84 M199.76 21.7 C193.01 15.14, 182 8.07, 175.61 0.71 M199.76 21.7 C190.78 16.03, 183.76 8.14, 175.61 0.71 M196.71 8.45 C191.69 4.35, 192.62 0.97, 187.65 0.57 M196.71 8.45 C194.52 6.07, 193.59 3.69, 187.65 0.57" stroke="#ffec99" stroke-width="1" fill="none"></path><path d="M20 0 C58.46 0.55, 102.51 0.86, 180 0 M20 0 C75.58 -3.08, 133.36 0.21, 180 0 M180 0 C194.55 1.16, 202.3 6.03, 200 20 M180 0 C191.55 -4.35, 202.54 3.24, 200 20 M200 20 C199.86 37.23, 200.24 49.57, 200 60 M200 20 C198.8 32.58, 199.92 49.56, 200 60 M200 60 C198.29 70.8, 193.12 80.95, 180 80 M200 60 C202.53 72.59, 195.82 82.58, 180 80 M180 80 C118 79.72, 60.12 74.53, 20 80 M180 80 C133.27 78.95, 89.31 80.07, 20 80 M20 80 C3.31 77.21, -2.06 75.79, 0 60 M20 80 C6.34 81.49, 0.49 75.46, 0 60 M0 60 C4.21 49.36, -2.37 31.53, 0 20 M0 60 C1.23 45.19, -1.61 33.49, 0 20 M0 20 C3.67 9.12, 5.74 -3.59, 20 0 M0 20 C-0.63 8.75, 5.34 4.13, 20 0" stroke="#f08c00" stroke-width="2" fill="none"></path></g><g transform="translate(563.2100296020508 597.5) rotate(0 26.78997039794922 12.5)"><text x="26.78997039794922" y="0" font-family="Virgil, Segoe UI Emoji" font-size="20px" fill="#f08c00" text-anchor="middle" style="white-space: pre;" direction="ltr" dominant-baseline="text-before-edge">Data</text></g><g stroke-linecap="round" transform="translate(490 510) rotate(0 100 20)"><path d="M2.66 2.31 C2.66 2.31, 2.66 2.31, 2.66 2.31 M2.66 2.31 C2.66 2.31, 2.66 2.31, 2.66 2.31 M0.83 16.62 C2.76 10.45, 9.67 1.84, 14.6 0.77 M0.83 16.62 C4.51 11.73, 8.31 7.83, 14.6 0.77 M0.96 28.66 C5.87 25.36, 8.19 18.44, 25.23 0.74 M0.96 28.66 C9.28 19.43, 20.48 5.12, 25.23 0.74 M3.72 37.68 C14.96 23.5, 29.36 15.75, 35.86 0.7 M3.72 37.68 C10.25 26.59, 20.08 19.54, 35.86 0.7 M12.38 39.91 C18.08 28.33, 31.91 18.43, 46.49 0.67 M12.38 39.91 C22.73 28.42, 32.77 14.44, 46.49 0.67 M23.01 39.88 C35.1 20.69, 50.33 12.27, 57.12 0.63 M23.01 39.88 C32.8 26.44, 44.97 13.86, 57.12 0.63 M33.64 39.84 C37.53 34.83, 46.05 22.05, 67.75 0.6 M33.64 39.84 C45.78 28.11, 55.92 15.14, 67.75 0.6 M44.27 39.81 C60.18 22.94, 75.07 5.32, 78.38 0.56 M44.27 39.81 C57.91 23.65, 70.25 9.81, 78.38 0.56 M54.9 39.77 C66.68 24.79, 78.15 13.83, 88.36 1.28 M54.9 39.77 C67.21 25.05, 80.78 11.93, 88.36 1.28 M65.53 39.74 C81.47 27.72, 93.5 8.71, 98.99 1.25 M65.53 39.74 C73.99 31.56, 82.28 20.34, 98.99 1.25 M76.16 39.7 C87.47 25.28, 98.2 17.03, 109.62 1.21 M76.16 39.7 C88.57 26.45, 98.67 15.42, 109.62 1.21 M86.79 39.67 C99.64 21.29, 110.59 11.1, 120.25 1.18 M86.79 39.67 C98.53 28.99, 107.11 18.25, 120.25 1.18 M97.42 39.64 C106.67 32.03, 108.24 22.71, 130.88 1.15 M97.42 39.64 C107.14 26.68, 116.17 14.42, 130.88 1.15 M107.39 40.36 C119.36 32.76, 125.61 14.6, 141.51 1.11 M107.39 40.36 C118.35 30.65, 125.48 17.92, 141.51 1.11 M118.02 40.32 C131.77 23.69, 144.31 10.74, 152.14 1.08 M118.02 40.32 C123.96 29.89, 132.03 24.58, 152.14 1.08 M128.65 40.29 C140.1 28.75, 144.52 25.72, 162.77 1.04 M128.65 40.29 C142.03 25.03, 155.19 10.24, 162.77 1.04 M139.28 40.25 C145.81 26.85, 159.39 22.96, 173.4 1.01 M139.28 40.25 C152.16 23.72, 163.59 12.02, 173.4 1.01 M149.91 40.22 C165.91 25.71, 176.23 14.07, 184.03 0.97 M149.91 40.22 C158.18 33.02, 168.27 23.26, 184.03 0.97 M160.54 40.18 C172.61 28.85, 177.11 20.16, 194.66 0.94 M160.54 40.18 C170.07 31.92, 177.43 19.44, 194.66 0.94 M171.17 40.15 C182.67 24.7, 194.14 18.48, 199.39 7.7 M171.17 40.15 C175.99 34.97, 181.39 28.49, 199.39 7.7 M181.8 40.11 C185.05 31.12, 193.65 28.9, 199.52 19.74 M181.8 40.11 C184.55 35.59, 189 30.63, 199.52 19.74 M192.43 40.08 C194.75 35.77, 195.52 36.97, 199.65 31.78 M192.43 40.08 C193.8 37.29, 197.12 35.63, 199.65 31.78 M5.57 39.32 C5.57 39.32, 5.57 39.32, 5.57 39.32 M5.57 39.32 C5.57 39.32, 5.57 39.32, 5.57 39.32 M17.61 39.19 C14.74 32.93, 1.81 26.11, 1 24.76 M17.61 39.19 C14.74 36.81, 10.6 32.45, 1 24.76 M30.4 39.71 C24.45 29.68, 11.29 25.1, 0.21 13.47 M30.4 39.71 C20.86 31.14, 13.59 21.49, 0.21 13.47 M42.44 39.58 C26.77 21.87, 9.91 12.22, 1.69 4.15 M42.44 39.58 C32.22 31.63, 23.11 21.56, 1.69 4.15 M54.48 39.45 C34.79 26.83, 22.48 11.63, 9.2 0.08 M54.48 39.45 C43.74 30.76, 33.07 22.75, 9.2 0.08 M66.53 39.31 C59.84 35.58, 47.37 25.79, 21.24 -0.05 M66.53 39.31 C57.86 28.43, 46.05 20.77, 21.24 -0.05 M79.32 39.84 C68.67 25.64, 48.98 12, 33.28 -0.18 M79.32 39.84 C63.45 26.39, 49.23 10.85, 33.28 -0.18 M91.36 39.7 C79.23 28.67, 58.25 11.99, 45.32 -0.32 M91.36 39.7 C76.36 27.47, 66.17 18.13, 45.32 -0.32 M103.4 39.57 C90.44 29.85, 70.77 10.87, 57.37 -0.45 M103.4 39.57 C92.42 32.34, 84.32 22.9, 57.37 -0.45 M115.44 39.44 C102.78 29.31, 97.81 25.04, 70.16 0.07 M115.44 39.44 C102.93 28.13, 93.61 20.24, 70.16 0.07 M128.24 39.96 C107.88 24.49, 96.01 13.32, 82.2 -0.06 M128.24 39.96 C112.74 25.13, 92.82 10.01, 82.2 -0.06 M140.28 39.83 C122.93 21.89, 109.98 11.97, 94.24 -0.19 M140.28 39.83 C130.73 30.48, 118.88 22.37, 94.24 -0.19 M152.32 39.69 C134.89 21.71, 119.42 7.87, 107.04 0.33 M152.32 39.69 C139.96 29.73, 129.53 20.18, 107.04 0.33 M165.12 40.22 C153.36 27.26, 139.54 21.13, 119.08 0.2 M165.12 40.22 C145.79 24.62, 130.45 11.01, 119.08 0.2 M177.16 40.08 C163.74 30.07, 148.79 14.35, 131.12 0.06 M177.16 40.08 C162.31 27.53, 151.57 17.29, 131.12 0.06 M189.2 39.95 C173.02 23.95, 157.11 9.87, 143.16 -0.07 M189.2 39.95 C174.9 26.32, 156.3 13.8, 143.16 -0.07 M198.22 37.19 C180.01 20.85, 166.93 13.86, 155.96 0.45 M198.22 37.19 C181.99 23.98, 163.53 7.68, 155.96 0.45 M199.7 27.88 C191.56 14.9, 174.86 4.62, 168 0.32 M199.7 27.88 C188.1 17.82, 180.67 9.21, 168 0.32 M199.66 17.25 C197.86 16.01, 191.81 10.3, 180.04 0.19 M199.66 17.25 C194.33 9.8, 186.28 4.43, 180.04 0.19 M199.63 6.62 C197.43 6.29, 194.3 2.27, 192.08 0.06 M199.63 6.62 C197.23 5.32, 195.21 3.89, 192.08 0.06" stroke="#ffec99" stroke-width="1" fill="none"></path><path d="M10 0 C77.33 0.58, 142.53 -4.63, 190 0 M10 0 C52.57 -2.95, 95.08 -3.84, 190 0 M190 0 C195.12 -3.78, 202.21 0.35, 200 10 M190 0 C200.54 3.39, 200.84 2.5, 200 10 M200 10 C202.33 16.91, 202.5 21.48, 200 30 M200 10 C199.13 12.95, 199.88 18.91, 200 30 M200 30 C202.2 36.02, 198.83 42.24, 190 40 M200 30 C203.22 34.18, 193.81 36.79, 190 40 M190 40 C127.76 37.47, 67.68 34.78, 10 40 M190 40 C150.9 37.3, 114.12 39.92, 10 40 M10 40 C3.05 41.29, 0.43 38.52, 0 30 M10 40 C5.97 37.27, 3.49 40.96, 0 30 M0 30 C1.27 21.37, 0.97 16.48, 0 10 M0 30 C2.19 27.05, -0.11 19.85, 0 10 M0 10 C-0.55 5.15, 2.18 3.59, 10 0 M0 10 C0.37 6.54, 2.96 -3.68, 10 0" stroke="#f08c00" stroke-width="2" fill="none"></path></g><g transform="translate(533.1000671386719 517.5) rotate(0 56.899932861328125 12.5)"><text x="56.899932861328125" y="0" font-family="Virgil, Segoe UI Emoji" font-size="20px" fill="#f08c00" text-anchor="middle" style="white-space: pre;" direction="ltr" dominant-baseline="text-before-edge">Parameters</text></g><g stroke-linecap="round" transform="translate(490 410) rotate(0 100 20)"><path d="M2.66 2.31 C2.66 2.31, 2.66 2.31, 2.66 2.31 M2.66 2.31 C2.66 2.31, 2.66 2.31, 2.66 2.31 M0.83 16.62 C1.91 8.59, 6.39 8.42, 14.6 0.77 M0.83 16.62 C2.34 14.21, 6.7 9.46, 14.6 0.77 M0.96 28.66 C13.73 15.32, 21.71 4.97, 25.23 0.74 M0.96 28.66 C10.98 16.63, 18.24 7.46, 25.23 0.74 M3.72 37.68 C9.55 27.07, 22.83 14.8, 35.86 0.7 M3.72 37.68 C10.56 28.23, 19.3 17.92, 35.86 0.7 M12.38 39.91 C20.96 27.54, 28.94 18.77, 46.49 0.67 M12.38 39.91 C25.79 25.78, 36.77 13.59, 46.49 0.67 M23.01 39.88 C30.63 30.59, 39.06 20.8, 57.12 0.63 M23.01 39.88 C30.64 29.15, 41.79 16.78, 57.12 0.63 M33.64 39.84 C48.17 24.33, 60.45 11.72, 67.75 0.6 M33.64 39.84 C47.78 24.67, 56.88 12.55, 67.75 0.6 M44.27 39.81 C56.27 30.34, 61.11 20.42, 78.38 0.56 M44.27 39.81 C54.11 28, 64.33 18.74, 78.38 0.56 M54.9 39.77 C65.4 32.68, 68.26 22.03, 88.36 1.28 M54.9 39.77 C65.77 26.7, 75.13 18.86, 88.36 1.28 M65.53 39.74 C76.63 24.73, 88.86 9.48, 98.99 1.25 M65.53 39.74 C78.11 25.33, 92.62 11.5, 98.99 1.25 M76.16 39.7 C83.81 31.11, 86.6 25.93, 109.62 1.21 M76.16 39.7 C85.38 30.17, 90.1 21.68, 109.62 1.21 M86.79 39.67 C93.92 29.72, 102.56 26.75, 120.25 1.18 M86.79 39.67 C96.67 27.33, 110 13.64, 120.25 1.18 M97.42 39.64 C109.06 31.46, 116.22 15.4, 130.88 1.15 M97.42 39.64 C105.65 32.03, 111.8 23.37, 130.88 1.15 M107.39 40.36 C119.83 22.91, 130.66 12.69, 141.51 1.11 M107.39 40.36 C120.42 29.21, 131.58 15.59, 141.51 1.11 M118.02 40.32 C121.59 29.15, 136.54 19.26, 152.14 1.08 M118.02 40.32 C124.35 29.96, 132.12 24.32, 152.14 1.08 M128.65 40.29 C140.41 30.67, 142.06 21.42, 162.77 1.04 M128.65 40.29 C138.35 27.39, 149.74 15.17, 162.77 1.04 M139.28 40.25 C149.47 33, 156.5 23.23, 173.4 1.01 M139.28 40.25 C148.66 29.98, 153.38 23.8, 173.4 1.01 M149.91 40.22 C157.96 24.05, 168.67 14.46, 184.03 0.97 M149.91 40.22 C162.74 24.6, 177.77 9.75, 184.03 0.97 M160.54 40.18 C170.31 24.91, 178.59 15.24, 194.66 0.94 M160.54 40.18 C175.62 27.13, 185.72 11.51, 194.66 0.94 M171.17 40.15 C172.87 34.6, 186.62 24.83, 199.39 7.7 M171.17 40.15 C182.56 27.44, 195.52 13.11, 199.39 7.7 M181.8 40.11 C184.29 35.58, 187.17 26.67, 199.52 19.74 M181.8 40.11 C187.84 34.39, 192.41 26.92, 199.52 19.74 M192.43 40.08 C193.4 38.92, 196.26 35.4, 199.65 31.78 M192.43 40.08 C194.42 36.93, 194.93 35.83, 199.65 31.78 M5.57 39.32 C5.57 39.32, 5.57 39.32, 5.57 39.32 M5.57 39.32 C5.57 39.32, 5.57 39.32, 5.57 39.32 M17.61 39.19 C11.17 31.95, 8.21 33.06, 1 24.76 M17.61 39.19 C11.44 32.48, 3.67 30.16, 1 24.76 M30.4 39.71 C23.08 33.11, 14.22 25.88, 0.21 13.47 M30.4 39.71 C23.42 31.11, 11.19 24.56, 0.21 13.47 M42.44 39.58 C30.18 33.09, 21.43 22.13, 1.69 4.15 M42.44 39.58 C30.45 28.04, 17.91 14.11, 1.69 4.15 M54.48 39.45 C37.48 27.96, 25.09 14.51, 9.2 0.08 M54.48 39.45 C37.71 25.72, 26.41 15.17, 9.2 0.08 M66.53 39.31 C46.25 21.25, 30.56 11.26, 21.24 -0.05 M66.53 39.31 C57.24 29.93, 48.18 23.99, 21.24 -0.05 M79.32 39.84 C69.92 27.73, 55.17 18.72, 33.28 -0.18 M79.32 39.84 C63.9 23.94, 47.82 13.69, 33.28 -0.18 M91.36 39.7 C74.59 27.49, 60.42 7.27, 45.32 -0.32 M91.36 39.7 C81.42 32.52, 70.25 23.39, 45.32 -0.32 M103.4 39.57 C82.13 19.94, 70.51 4.57, 57.37 -0.45 M103.4 39.57 C85.66 26.23, 73.53 10.87, 57.37 -0.45 M115.44 39.44 C101.92 31.19, 93.56 17.87, 70.16 0.07 M115.44 39.44 C107.98 31.8, 98.47 21.9, 70.16 0.07 M128.24 39.96 C117.76 28.45, 98.87 21.12, 82.2 -0.06 M128.24 39.96 C114.7 25.18, 97.59 12.67, 82.2 -0.06 M140.28 39.83 C126.1 34.14, 122.23 24.44, 94.24 -0.19 M140.28 39.83 C131.64 31.24, 119.98 21.12, 94.24 -0.19 M152.32 39.69 C139.95 32.12, 134.97 20.63, 107.04 0.33 M152.32 39.69 C139.02 30.47, 127.26 18.69, 107.04 0.33 M165.12 40.22 C158.44 31.14, 147.18 18.46, 119.08 0.2 M165.12 40.22 C153.8 31.89, 142.79 21.31, 119.08 0.2 M177.16 40.08 C159.15 26.31, 145.2 7.16, 131.12 0.06 M177.16 40.08 C168.94 31.18, 158.52 23.36, 131.12 0.06 M189.2 39.95 C178.29 32.46, 167.71 22.11, 143.16 -0.07 M189.2 39.95 C179.56 30.98, 165.77 18.48, 143.16 -0.07 M198.22 37.19 C192.24 30.15, 175.79 22.06, 155.96 0.45 M198.22 37.19 C183.45 23.01, 165.99 10.16, 155.96 0.45 M199.7 27.88 C193.47 25.08, 183.55 13.18, 168 0.32 M199.7 27.88 C190.25 20.9, 183.75 15.27, 168 0.32 M199.66 17.25 C192.53 9.06, 180.92 5.82, 180.04 0.19 M199.66 17.25 C194.21 13.09, 193.04 9.15, 180.04 0.19 M199.63 6.62 C196.16 3.06, 193.36 0.76, 192.08 0.06 M199.63 6.62 C198.03 4.39, 194.1 2.83, 192.08 0.06" stroke="#ffec99" stroke-width="1" fill="none"></path><path d="M10 0 C75.24 2.07, 149.74 3.12, 190 0 M10 0 C68.43 -1.32, 129.51 -0.91, 190 0 M190 0 C200.03 2.94, 200.73 2.6, 200 10 M190 0 C198.81 -0.4, 198.66 6.05, 200 10 M200 10 C196.68 15.84, 201.91 20.27, 200 30 M200 10 C201.08 14.41, 201.06 20.59, 200 30 M200 30 C202.8 34.5, 194.18 37.21, 190 40 M200 30 C201.96 35, 192.65 39.33, 190 40 M190 40 C129.58 39.49, 75.06 34.77, 10 40 M190 40 C148.41 42.86, 107.31 43.14, 10 40 M10 40 C5.63 37.63, 3.04 40.4, 0 30 M10 40 C7.53 36.73, 0.13 37.8, 0 30 M0 30 C-3.72 20.85, -1.15 22.48, 0 10 M0 30 C-0.18 23.68, -0.48 17.34, 0 10 M0 10 C0.32 6.12, 3.01 -3.2, 10 0 M0 10 C1.42 2.92, 5.16 -2.07, 10 0" stroke="#f08c00" stroke-width="2" fill="none"></path></g><g transform="translate(542.0400543212891 417.5) rotate(0 47.95994567871094 12.5)"><text x="47.95994567871094" y="0" font-family="Virgil, Segoe UI Emoji" font-size="20px" fill="#f08c00" text-anchor="middle" style="white-space: pre;" direction="ltr" dominant-baseline="text-before-edge">Gradients</text></g><g stroke-linecap="round"><g transform="translate(590 570) rotate(0 0 -10)"><path d="M0.17 0.16 C0.22 -3.28, 0.38 -16.64, 0.32 -20.09 M-0.41 -0.24 C-0.41 -3.36, 0.09 -16.11, 0.05 -19.43" stroke="#868e96" stroke-width="2" fill="none"></path></g><g transform="translate(590 570) rotate(0 0 -10)"><path d="M3.32 -9.98 C2.42 -12.57, 1.2 -15.92, 0.05 -19.43 M3.32 -9.98 C2.83 -11.75, 1.99 -13.92, 0.05 -19.43" stroke="#868e96" stroke-width="2" fill="none"></path></g><g transform="translate(590 570) rotate(0 0 -10)"><path d="M-3.52 -10.09 C-2.34 -12.65, -1.48 -15.97, 0.05 -19.43 M-3.52 -10.09 C-2.6 -11.81, -2.04 -13.96, 0.05 -19.43" stroke="#868e96" stroke-width="2" fill="none"></path></g></g><mask></mask><g mask="url(#mask-VDrHvZKhcYNs5JJOqsKoD)" stroke-linecap="round"><g transform="translate(590 509) rotate(0 0 -29)"><path d="M0.69 -0.19 C0.55 -10.11, -0.46 -49.35, -0.46 -59.14 M-0.41 -1.34 C-0.78 -11.18, -1.77 -48.74, -1.66 -58.19" stroke="#868e96" stroke-width="2" fill="none"></path></g><g transform="translate(590 509) rotate(0 0 -29)"><path d="M7.14 -34.79 C3.85 -43.25, -0.63 -49.1, -1.66 -58.19 M7.14 -34.79 C5.14 -40.19, 3.44 -45.37, -1.66 -58.19" stroke="#868e96" stroke-width="2" fill="none"></path></g><g transform="translate(590 509) rotate(0 0 -29)"><path d="M-9.96 -34.61 C-7.61 -43.23, -6.43 -49.14, -1.66 -58.19 M-9.96 -34.61 C-8.1 -40.17, -5.95 -45.4, -1.66 -58.19" stroke="#868e96" stroke-width="2" fill="none"></path></g></g><mask id="mask-VDrHvZKhcYNs5JJOqsKoD"><rect x="0" y="0" fill="#fff" width="690" height="667"></rect><rect x="559.1039428710938" y="470" fill="#000" width="61.7921142578125" height="20" opacity="1"></rect></mask><g transform="translate(559.1039428710938 470) rotate(0 30.408281748606896 9.336597511917319)"><text x="30.89605712890625" y="0" font-family="Virgil, Segoe UI Emoji" font-size="16px" fill="#868e96" text-anchor="middle" style="white-space: pre;" direction="ltr" dominant-baseline="text-before-edge">compute</text></g><g mask="url(#mask-0QO965k6Z42QEYPpYQWkp)" stroke-linecap="round"><g transform="translate(330 410) rotate(0 79.52213163152334 -115.40932799620981)"><path d="M-0.45 0.4 C9.29 -9.5, 42.15 -23.1, 59.16 -59.57 C76.17 -96.04, 84.89 -191.85, 101.61 -218.4 C118.33 -244.95, 149.88 -218.74, 159.49 -218.85 M1.52 -0.43 C11.56 -10.7, 44.37 -24.82, 61.44 -61.46 C78.51 -98.11, 87.6 -194.27, 103.94 -220.28 C120.28 -246.29, 149.94 -217.81, 159.47 -217.52" stroke="#868e96" stroke-width="2" fill="none"></path></g><g transform="translate(330 410) rotate(0 79.52213163152334 -115.40932799620981)"><path d="M134.51 -218.95 C144.25 -219.73, 153.37 -219.61, 159.47 -217.52 M134.51 -218.95 C143.24 -218.33, 153.66 -218.81, 159.47 -217.52" stroke="#868e96" stroke-width="2" fill="none"></path></g><g transform="translate(330 410) rotate(0 79.52213163152334 -115.40932799620981)"><path d="M141.27 -234.66 C148.54 -229.76, 155.2 -223.93, 159.47 -217.52 M141.27 -234.66 C147.4 -228.14, 155.3 -222.76, 159.47 -217.52" stroke="#868e96" stroke-width="2" fill="none"></path></g></g><mask id="mask-0QO965k6Z42QEYPpYQWkp"><rect x="0" y="0" fill="#fff" width="590" height="729.282032302755"></rect><rect x="397.54195496588477" y="258.56606849237903" fill="#000" width="25.392044067382812" height="20" opacity="1"></rect></mask><g transform="translate(397.54195496588477 258.56606849237903) rotate(0 11.980176665638567 36.02460351141116)"><text x="12.696022033691406" y="0" font-family="Virgil, Segoe UI Emoji" font-size="16px" fill="#868e96" text-anchor="middle" style="white-space: pre;" direction="ltr" dominant-baseline="text-before-edge">pull</text></g><g mask="url(#mask-PZY-Co3Q1_84tYe3VTdgB)" stroke-linecap="round"><g transform="translate(490 430) rotate(0 -88.90544456622763 -51.094555433772314)"><path d="M-0.12 -0.51 C-17.07 -5.31, -72.66 -11.62, -102.47 -28.45 C-132.27 -45.27, -166.36 -89.36, -178.96 -101.46 M-1.64 -1.82 C-18.6 -6.52, -73.8 -10.38, -102.97 -27.32 C-132.15 -44.25, -164.17 -90.81, -176.68 -103.42" stroke="#868e96" stroke-width="2" fill="none"></path></g><g transform="translate(490 430) rotate(0 -88.90544456622763 -51.094555433772314)"><path d="M-154.97 -91.02 C-160.93 -92.55, -166.45 -98.76, -176.68 -103.42 M-154.97 -91.02 C-162.47 -94.66, -170.87 -99.29, -176.68 -103.42" stroke="#868e96" stroke-width="2" fill="none"></path></g><g transform="translate(490 430) rotate(0 -88.90544456622763 -51.094555433772314)"><path d="M-168.02 -79.97 C-170.97 -84.07, -173.43 -92.87, -176.68 -103.42 M-168.02 -79.97 C-170.79 -87.72, -174.48 -96.33, -176.68 -103.42" stroke="#868e96" stroke-width="2" fill="none"></path></g></g><mask id="mask-PZY-Co3Q1_84tYe3VTdgB"><rect x="0" y="0" fill="#fff" width="767.8108891324553" height="632.1891108675446"></rect><rect x="369.9146950817742" y="392.32050807568885" fill="#000" width="33.56806945800781" height="20" opacity="1"></rect></mask><g transform="translate(369.9146950817742 392.32050807568885) rotate(0 30.542734750378713 -14.28523142816465)"><text x="16.784034729003906" y="0" font-family="Virgil, Segoe UI Emoji" font-size="16px" fill="#868e96" text-anchor="middle" style="white-space: pre;" direction="ltr" dominant-baseline="text-before-edge">push</text></g><g mask="url(#mask-xvMOucNxI92HkVEexRFqC)" stroke-linecap="round"><g transform="translate(170 430) rotate(0 160 51.65063509461095)"><path d="M0.92 0.41 C5.51 17.88, -25.98 86.94, 27.06 104.19 C80.11 121.43, 270.55 103.97, 319.2 103.89 M-0.06 -0.42 C4.97 16.77, -24.17 85.49, 29.45 102.53 C83.07 119.58, 273.47 101.44, 321.67 101.85" stroke="#868e96" stroke-width="2" fill="none"></path></g><g transform="translate(170 430) rotate(0 160 51.65063509461095)"><path d="M298.57 111.4 C305.31 107.72, 312.11 104.93, 321.67 101.85 M298.57 111.4 C306.82 107.89, 315.59 104.26, 321.67 101.85" stroke="#868e96" stroke-width="2" fill="none"></path></g><g transform="translate(170 430) rotate(0 160 51.65063509461095)"><path d="M297.83 94.32 C304.68 95.07, 311.67 96.72, 321.67 101.85 M297.83 94.32 C306.2 96.76, 315.23 99.1, 321.67 101.85" stroke="#868e96" stroke-width="2" fill="none"></path></g></g><mask id="mask-xvMOucNxI92HkVEexRFqC"><rect x="0" y="0" fill="#fff" width="590" height="633.3012701892219"></rect><rect x="184.98346989061997" y="523.3012701892219" fill="#000" width="25.392044067382812" height="20" opacity="1"></rect></mask><g transform="translate(184.98346989061997 523.3012701892219) rotate(0 143.73568177336466 -37.613607995203324)"><text x="12.696022033691406" y="0" font-family="Virgil, Segoe UI Emoji" font-size="16px" fill="#868e96" text-anchor="middle" style="white-space: pre;" direction="ltr" dominant-baseline="text-before-edge">pull</text></g></svg>