<svg version="1.1" xmlns="http://www.w3.org/2000/svg" viewBox="0 0 520 245" width="1040" height="490">
  <!-- svg-source:excalidraw -->
  
  <defs>
    <style class="style-fonts">
      @font-face {
        font-family: "Virgil";
        src: url("https://excalidraw.com/Virgil.woff2");
      }
      @font-face {
        font-family: "Cascadia";
        src: url("https://excalidraw.com/Cascadia.woff2");
      }
      @font-face {
        font-family: "Assistant";
        src: url("https://excalidraw.com/Assistant-Regular.woff2");
      }
    </style>
    
  </defs>
  <g stroke-linecap="round" transform="translate(10 82.5) rotate(0 100 30)"><path d="M3.99 3.47 C3.99 3.47, 3.99 3.47, 3.99 3.47 M3.99 3.47 C3.99 3.47, 3.99 3.47, 3.99 3.47 M0.85 19.29 C6.66 11.92, 10.18 7.21, 17.25 0.42 M0.85 19.29 C5.83 14.67, 11.98 7.37, 17.25 0.42 M0.98 31.33 C6.39 23.78, 14.55 10.62, 27.88 0.38 M0.98 31.33 C5.67 23.73, 14.69 16.92, 27.88 0.38 M0.46 44.12 C16.27 26.93, 27.69 13.5, 37.85 1.1 M0.46 44.12 C8.6 32.18, 21.03 23.45, 37.85 1.1 M2.56 53.9 C20.69 39.01, 37.4 16.65, 48.48 1.07 M2.56 53.9 C15.48 40.66, 29.9 26.73, 48.48 1.07 M8.59 59.15 C17.78 50.14, 35.2 29.26, 59.11 1.03 M8.59 59.15 C27.67 38.97, 43.67 18.65, 59.11 1.03 M19.22 59.11 C37.75 39.75, 50.2 19.36, 69.74 1 M19.22 59.11 C32.38 41.53, 47.54 23.77, 69.74 1 M29.85 59.08 C44.26 43.89, 58.09 29.34, 80.37 0.97 M29.85 59.08 C39.02 46.26, 50.25 33.22, 80.37 0.97 M40.49 59.04 C50.31 45.22, 65.61 32.28, 91 0.93 M40.49 59.04 C52.31 44.75, 64.41 30.49, 91 0.93 M50.46 59.76 C60.92 45.66, 72.84 31.03, 101.63 0.9 M50.46 59.76 C62.68 44.2, 77.4 30.25, 101.63 0.9 M61.09 59.73 C77.13 45.56, 93.96 26.75, 112.26 0.86 M61.09 59.73 C80.57 38.58, 99.63 16.07, 112.26 0.86 M71.72 59.69 C89.57 43.03, 98 23.13, 122.89 0.83 M71.72 59.69 C91.24 37.22, 110.84 13.95, 122.89 0.83 M82.35 59.66 C96.63 43.17, 113.59 20.7, 132.87 1.55 M82.35 59.66 C94.19 47.74, 105.55 33.74, 132.87 1.55 M92.98 59.63 C111.25 35.55, 134.85 15.31, 143.5 1.51 M92.98 59.63 C111.88 38.53, 128.14 18.12, 143.5 1.51 M103.61 59.59 C120.51 46.08, 130.97 34.69, 154.13 1.48 M103.61 59.59 C125.07 34.59, 142.21 14.64, 154.13 1.48 M114.24 59.56 C124.17 47.93, 138.35 36.46, 164.76 1.44 M114.24 59.56 C131.32 38.46, 148 20.66, 164.76 1.44 M124.87 59.52 C135.8 46.61, 152.1 31.27, 175.39 1.41 M124.87 59.52 C138.72 42.58, 149.82 28.33, 175.39 1.41 M135.5 59.49 C143.34 47.12, 159.33 37.11, 186.02 1.37 M135.5 59.49 C152.13 39.18, 167.59 17.4, 186.02 1.37 M145.47 60.21 C160.89 50.04, 173.98 27.8, 195.33 2.85 M145.47 60.21 C157.85 44.91, 169.26 31.95, 195.33 2.85 M156.1 60.17 C174.75 42.29, 189.07 23.64, 199.4 10.36 M156.1 60.17 C170.35 43.59, 181.87 30.15, 199.4 10.36 M166.73 60.14 C183.39 45.97, 195.63 33.44, 200.19 21.65 M166.73 60.14 C172.94 53.49, 180.08 46.08, 200.19 21.65 M177.36 60.1 C189.68 46.97, 195.81 38.47, 200.33 33.69 M177.36 60.1 C181.57 51.75, 188.43 45.57, 200.33 33.69 M188.65 59.32 C191.38 54.23, 195.89 52.5, 199.8 46.49 M188.65 59.32 C191.63 55.5, 197.28 50.36, 199.8 46.49 M3.95 56.42 C3.95 56.42, 3.95 56.42, 3.95 56.42 M3.95 56.42 C3.95 56.42, 3.95 56.42, 3.95 56.42 M19.01 58.92 C10.62 53.01, 9.14 44.55, 0.9 43.17 M19.01 58.92 C11.03 55.5, 6.57 48.9, 0.9 43.17 M31.81 59.44 C19.9 54.43, 15.83 46.17, 0.86 32.54 M31.81 59.44 C26.33 53.69, 17.67 46.42, 0.86 32.54 M43.85 59.31 C31.67 49.23, 12.18 33.6, 0.83 21.91 M43.85 59.31 C34.02 51.26, 22.92 43.9, 0.83 21.91 M55.89 59.17 C41.25 46.22, 32.76 37.9, 0.79 11.28 M55.89 59.17 C32.2 40.91, 10.73 22.13, 0.79 11.28 M67.93 59.04 C48.15 43.96, 26.59 23.87, 3.78 3.27 M67.93 59.04 C48.75 39.44, 26.68 20.75, 3.78 3.27 M80.72 59.56 C58.81 39.9, 33 22.75, 12.8 0.52 M80.72 59.56 C62.4 43.43, 46.03 30.11, 12.8 0.52 M92.77 59.43 C66.15 40.79, 45.79 19.51, 24.09 -0.27 M92.77 59.43 C74.96 41.58, 55.88 27.75, 24.09 -0.27 M104.81 59.3 C85.46 42.21, 72.2 29.79, 36.88 0.25 M104.81 59.3 C80.15 38.89, 59.6 18.54, 36.88 0.25 M117.6 59.82 C102.76 43.11, 80.23 32.39, 48.92 0.12 M117.6 59.82 C104.26 46.52, 87.36 33.35, 48.92 0.12 M129.64 59.69 C110.28 41.32, 86.62 24.8, 60.96 -0.02 M129.64 59.69 C113.03 41.22, 94.45 26.54, 60.96 -0.02 M141.68 59.55 C129.63 47.98, 107.76 33.18, 73.76 0.51 M141.68 59.55 C121.35 44.18, 104.41 30.39, 73.76 0.51 M154.48 60.08 C132.59 33.66, 107.29 17.42, 85.8 0.37 M154.48 60.08 C129.93 38.51, 101.63 13.11, 85.8 0.37 M166.52 59.94 C152.52 48.42, 132.47 29.28, 97.84 0.24 M166.52 59.94 C148.69 44.55, 134.65 29.53, 97.84 0.24 M178.56 59.81 C156.49 47.01, 136.97 27.4, 109.88 0.11 M178.56 59.81 C159.1 40.61, 136.73 20.46, 109.88 0.11 M189.09 58.36 C166.68 39.03, 154.7 25.35, 122.68 0.63 M189.09 58.36 C168.39 39.65, 145.18 20.59, 122.68 0.63 M196.6 54.29 C172.41 34.22, 148.45 15.26, 134.72 0.5 M196.6 54.29 C173.94 36.22, 151.81 16.35, 134.72 0.5 M199.59 46.29 C188.21 35.66, 173.88 27.96, 146.76 0.36 M199.59 46.29 C184.46 34.62, 169.22 20.12, 146.76 0.36 M199.55 35.66 C184.62 26.74, 175.19 17.59, 159.56 0.89 M199.55 35.66 C187.28 23.9, 171.16 9.1, 159.56 0.89 M199.52 25.03 C187.37 14.69, 184.01 11.41, 171.6 0.75 M199.52 25.03 C187.72 15.81, 180.53 6.75, 171.6 0.75 M200.24 15.05 C200 8.67, 196.22 7.68, 183.64 0.62 M200.24 15.05 C192.99 9.39, 186.79 1.77, 183.64 0.62" stroke="#e7f5ff" stroke-width="1" fill="none"></path><path d="M15 0 C72 2.69, 119.22 -3.67, 185 0 M15 0 C79.4 -2.58, 143.35 -1.93, 185 0 M185 0 C195.01 -0.63, 197.56 3.53, 200 15 M185 0 C192.33 -1.76, 197.59 2.82, 200 15 M200 15 C198.09 24.12, 199.61 31.04, 200 45 M200 15 C201.37 24.58, 199.91 31.72, 200 45 M200 45 C200.54 58.86, 192.69 59.84, 185 60 M200 45 C202.12 51.8, 191.99 61.92, 185 60 M185 60 C133.01 63.85, 82.05 61.49, 15 60 M185 60 C136.11 57.27, 86.5 59.48, 15 60 M15 60 C1.87 62.11, -1.15 56.45, 0 45 M15 60 C7.76 59.89, -0.77 54.13, 0 45 M0 45 C3.07 40.4, 3.6 26.98, 0 15 M0 45 C1.13 35.68, -0.44 22.29, 0 15 M0 15 C1.56 5.43, 8.15 -2.8, 15 0 M0 15 C-2.49 8.43, 6.74 1.23, 15 0" stroke="#1971c2" stroke-width="2" fill="none"></path></g><g transform="translate(71.69583892822266 95) rotate(0 38.304161071777344 17.5)"><text x="38.304161071777344" y="0" font-family="Virgil, Segoe UI Emoji" font-size="28px" fill="#1971c2" text-anchor="middle" style="white-space: pre;" direction="ltr" dominant-baseline="text-before-edge">Agent</text></g><g stroke-linecap="round" transform="translate(310 82.5) rotate(0 100 30)"><path d="M3.99 3.47 C3.99 3.47, 3.99 3.47, 3.99 3.47 M3.99 3.47 C3.99 3.47, 3.99 3.47, 3.99 3.47 M0.85 19.29 C7.54 13.04, 9.79 11.51, 17.25 0.42 M0.85 19.29 C4.67 13.85, 9.86 8.02, 17.25 0.42 M0.98 31.33 C10.24 22.37, 12.86 14.51, 27.88 0.38 M0.98 31.33 C12.16 20.08, 23.6 6.09, 27.88 0.38 M0.46 44.12 C17.36 28.22, 25.44 12.15, 37.85 1.1 M0.46 44.12 C14.41 28.62, 30.56 11.8, 37.85 1.1 M2.56 53.9 C18.88 34.96, 38.43 15.92, 48.48 1.07 M2.56 53.9 C18.84 32.22, 36.1 14.89, 48.48 1.07 M8.59 59.15 C27.32 34.97, 49.18 14.94, 59.11 1.03 M8.59 59.15 C24.85 44.39, 38.55 26.8, 59.11 1.03 M19.22 59.11 C35.67 45.64, 44.83 27.87, 69.74 1 M19.22 59.11 C33.04 43.23, 46.7 28.75, 69.74 1 M29.85 59.08 C51.31 38.78, 63.3 18.96, 80.37 0.97 M29.85 59.08 C42.03 47.62, 52.01 33.31, 80.37 0.97 M40.49 59.04 C54.02 40.19, 69.81 21.99, 91 0.93 M40.49 59.04 C51.53 48.58, 61.23 35.07, 91 0.93 M50.46 59.76 C58.22 47.69, 69.72 32.72, 101.63 0.9 M50.46 59.76 C67.96 39.62, 88.42 18.76, 101.63 0.9 M61.09 59.73 C80.74 39.95, 103.09 15.04, 112.26 0.86 M61.09 59.73 C81.04 39.55, 101.54 16.07, 112.26 0.86 M71.72 59.69 C86.84 42.88, 96.44 31.63, 122.89 0.83 M71.72 59.69 C87.24 41.61, 103.95 22.79, 122.89 0.83 M82.35 59.66 C98.63 41.53, 110.02 32.33, 132.87 1.55 M82.35 59.66 C93.39 44.64, 106.21 28.51, 132.87 1.55 M92.98 59.63 C111.19 36.14, 128.73 18.03, 143.5 1.51 M92.98 59.63 C101.56 49.55, 115.96 36.15, 143.5 1.51 M103.61 59.59 C121.12 41.66, 141.96 14.94, 154.13 1.48 M103.61 59.59 C115.05 44.36, 128.21 30.45, 154.13 1.48 M114.24 59.56 C126.89 41.67, 144.68 19.1, 164.76 1.44 M114.24 59.56 C128.11 43.69, 141.96 28.14, 164.76 1.44 M124.87 59.52 C146.87 40, 166.56 13.03, 175.39 1.41 M124.87 59.52 C133.36 49.12, 142.83 37.12, 175.39 1.41 M135.5 59.49 C156.86 38.27, 171.44 17.26, 186.02 1.37 M135.5 59.49 C146.8 46.24, 158.51 37.91, 186.02 1.37 M145.47 60.21 C167.44 43.88, 186.05 17.03, 195.33 2.85 M145.47 60.21 C163.61 36.8, 183.34 17.44, 195.33 2.85 M156.1 60.17 C169.17 44.88, 180.35 31.52, 199.4 10.36 M156.1 60.17 C165.53 46.22, 177.31 36.43, 199.4 10.36 M166.73 60.14 C176.89 45.96, 188.44 35.18, 200.19 21.65 M166.73 60.14 C174.94 48.63, 185.62 37.54, 200.19 21.65 M177.36 60.1 C188.66 49.15, 188.64 40.95, 200.33 33.69 M177.36 60.1 C182.94 53.28, 187.97 46.75, 200.33 33.69 M188.65 59.32 C191.41 57.76, 192.55 53.99, 199.8 46.49 M188.65 59.32 C190.05 54.76, 194.78 52.63, 199.8 46.49 M3.95 56.42 C3.95 56.42, 3.95 56.42, 3.95 56.42 M3.95 56.42 C3.95 56.42, 3.95 56.42, 3.95 56.42 M12.97 53.67 C9.58 52.03, 3.98 50.15, 3.16 45.14 M12.97 53.67 C9.47 50.38, 5.56 49.09, 3.16 45.14 M25.01 53.53 C15.3 43.24, 12.8 42.56, 3.13 34.51 M25.01 53.53 C20.28 48.8, 15.76 45.77, 3.13 34.51 M37.81 54.06 C32 47.36, 21.63 39.24, 3.09 23.88 M37.81 54.06 C30.19 47.41, 21.08 38.79, 3.09 23.88 M49.85 53.92 C39.32 44.4, 20.08 31.21, 0.79 11.28 M49.85 53.92 C37.29 42.34, 25.27 34.21, 0.79 11.28 M61.89 53.79 C47.46 38.07, 35.12 26.83, 3.78 3.27 M61.89 53.79 C47.69 38.73, 31.43 26.83, 3.78 3.27 M74.69 54.31 C63.05 43.4, 46.65 26.81, 12.8 0.52 M74.69 54.31 C48.24 35.21, 23.54 13.12, 12.8 0.52 M86.73 54.18 C58.66 31.84, 37.9 9.47, 18.8 -4.86 M86.73 54.18 C66.74 33.12, 42.7 15.88, 18.8 -4.86 M98.77 54.05 C79.04 33.21, 54.18 19.39, 31.6 -4.34 M98.77 54.05 C77.6 31.86, 54.97 13.63, 31.6 -4.34 M111.56 54.57 C91.1 42.34, 79.26 22.1, 43.64 -4.47 M111.56 54.57 C96.2 39.87, 77.68 22.95, 43.64 -4.47 M123.61 54.44 C102.09 35.82, 88.67 18.32, 55.68 -4.61 M123.61 54.44 C96.21 29.76, 72.99 9.85, 55.68 -4.61 M135.65 54.3 C120.69 41.89, 99.13 24.53, 68.48 -4.09 M135.65 54.3 C111.99 36.1, 94.16 17.32, 68.48 -4.09 M147.69 54.17 C118.94 34.65, 97.86 12.45, 80.52 -4.22 M147.69 54.17 C131.1 38.49, 117.1 26.77, 80.52 -4.22 M160.48 54.69 C143.62 38.71, 124.34 22.83, 92.56 -4.35 M160.48 54.69 C136.88 34.67, 111.94 14.52, 92.56 -4.35 M172.52 54.56 C151.79 37.86, 139.35 24.5, 104.6 -4.48 M172.52 54.56 C153.14 35.85, 132.19 19.1, 104.6 -4.48 M187.58 57.05 C157.61 38.04, 136.83 11.82, 117.39 -3.96 M187.58 57.05 C165.56 36.36, 140.34 17.79, 117.39 -3.96 M196.6 54.29 C183.24 44.28, 164 26.63, 129.44 -4.09 M196.6 54.29 C178.33 38.41, 158.91 19.24, 129.44 -4.09 M201.85 48.26 C185.81 32.67, 165.77 19, 141.48 -4.23 M201.85 48.26 C185.96 31.72, 164.45 17.22, 141.48 -4.23 M201.82 37.63 C186.6 22.9, 178.63 18.28, 154.27 -3.7 M201.82 37.63 C190.08 27.39, 173.55 12.42, 154.27 -3.7 M202.54 27.65 C190.56 16.49, 174.49 6.04, 166.31 -3.84 M202.54 27.65 C188.41 17.88, 178.68 2.99, 166.31 -3.84 M202.5 17.02 C193.12 12.63, 183.12 1.36, 178.35 -3.97 M202.5 17.02 C196.41 10.38, 188.43 4.63, 178.35 -3.97" stroke="#ebfbee" stroke-width="1" fill="none"></path><path d="M15 0 C56.98 0.07, 96.83 -3.32, 185 0 M15 0 C81.73 -1.22, 148.36 -1.17, 185 0 M185 0 C193.47 -2.1, 198.1 2.75, 200 15 M185 0 C193.96 0.34, 197.96 7.08, 200 15 M200 15 C198.86 22.51, 203.36 34.1, 200 45 M200 15 C201.64 23.01, 199.63 34.26, 200 45 M200 45 C197.22 52.39, 196.67 60.5, 185 60 M200 45 C197.39 55.97, 196.32 63.6, 185 60 M185 60 C121.39 57.48, 55.8 57.97, 15 60 M185 60 C132.03 56.77, 77.67 58.54, 15 60 M15 60 C4.9 59.33, -0.75 54.15, 0 45 M15 60 C5.31 58.5, 3.57 59.32, 0 45 M0 45 C0.27 31.52, 2.47 23.69, 0 15 M0 45 C0.79 38.22, -0.82 27.21, 0 15 M0 15 C2.98 6.51, 6.07 -2.38, 15 0 M0 15 C-2.45 3.65, 8.75 0.68, 15 0" stroke="#2f9e44" stroke-width="2" fill="none"></path></g><g transform="translate(332.35567474365234 95) rotate(0 77.64432525634766 17.5)"><text x="77.64432525634766" y="0" font-family="Virgil, Segoe UI Emoji" font-size="28px" fill="#2f9e44" text-anchor="middle" style="white-space: pre;" direction="ltr" dominant-baseline="text-before-edge">Environment</text></g><g mask="url(#mask-LGCaTwt48MsGJfkl__c60)" stroke-linecap="round"><g transform="translate(109.92745143273396 82.5) rotate(0 150.03627428363302 -30)"><path d="M0 0 C-0.59 -15.58, 1 -31.97, 0 -60 M0 0 C1.18 -11.68, 0.21 -24.99, 0 -60 M0 -60 C82.13 -57.26, 166.83 -59.05, 300.07 -60 M0 -60 C92.73 -59.77, 185.66 -58.5, 300.07 -60 M300.07 -60 C300.67 -47.41, 297.81 -34.7, 300.07 0 M300.07 -60 C299.74 -48.07, 298.73 -34.35, 300.07 0" stroke="#343a40" stroke-width="2" fill="none"></path></g><g transform="translate(109.92745143273396 82.5) rotate(0 150.03627428363302 -30)"><path d="M290.93 -23.27 C291.99 -17.77, 295.9 -13.03, 300.07 0 M290.93 -23.27 C293.62 -17.74, 294.54 -13.79, 300.07 0" stroke="#343a40" stroke-width="2" fill="none"></path></g><g transform="translate(109.92745143273396 82.5) rotate(0 150.03627428363302 -30)"><path d="M308.02 -23.7 C304.74 -18.02, 304.32 -13.17, 300.07 0 M308.02 -23.7 C307.16 -17.96, 304.55 -13.92, 300.07 0" stroke="#343a40" stroke-width="2" fill="none"></path></g></g><mask id="mask-LGCaTwt48MsGJfkl__c60"><rect x="0" y="0" fill="#fff" width="510" height="242.5"></rect><rect x="230.22375837017557" y="10" fill="#000" width="59.47993469238281" height="25" opacity="1"></rect></mask><g transform="translate(230.22375837017557 10) rotate(0 29.71393145591344 42.5)"><text x="29.739967346191406" y="0" font-family="Virgil, Segoe UI Emoji" font-size="20px" fill="#343a40" text-anchor="middle" style="white-space: pre;" direction="ltr" dominant-baseline="text-before-edge">action</text></g><g mask="url(#mask-yciwG6R6ZKeHrgrwak5_n)" stroke-linecap="round"><g transform="translate(390 142.5) rotate(0 -130 20)"><path d="M0 0 C1.82 14.62, -1.41 26.79, 0 40 M0 0 C0.85 14.55, 0.37 28.52, 0 40 M0 40 C-79.35 43.23, -161.31 41.44, -260 40 M0 40 C-78.64 40.81, -158.22 40.51, -260 40 M-260 40 C-261.22 27.05, -259.59 15.46, -260 0 M-260 40 C-260.02 27.27, -260.41 16.13, -260 0" stroke="#343a40" stroke-width="2" fill="none"></path></g><g transform="translate(390 142.5) rotate(0 -130 20)"><path d="M-253.42 18.89 C-253.62 13.32, -259.12 5.25, -260 0 M-253.42 18.89 C-255.11 13.16, -257.85 6.84, -260 0" stroke="#343a40" stroke-width="2" fill="none"></path></g><g transform="translate(390 142.5) rotate(0 -130 20)"><path d="M-267.1 18.7 C-262.59 13.06, -263.39 5.06, -260 0 M-267.1 18.7 C-264.07 13.02, -262.1 6.76, -260 0" stroke="#343a40" stroke-width="2" fill="none"></path></g></g><mask id="mask-yciwG6R6ZKeHrgrwak5_n"><rect x="0" y="0" fill="#fff" width="750" height="282.5"></rect><rect x="231.13003540039062" y="170" fill="#000" width="57.73992919921875" height="25" opacity="1"></rect></mask><g transform="translate(231.13003540039062 170) rotate(0 28.925680596144048 -6.594379269195031)"><text x="28.869964599609375" y="0" font-family="Virgil, Segoe UI Emoji" font-size="20px" fill="#343a40" text-anchor="middle" style="white-space: pre;" direction="ltr" dominant-baseline="text-before-edge">state</text></g><g mask="url(#mask-RBGBwxjayc9upZbWnkX-S)" stroke-linecap="round"><g transform="translate(430 142.5) rotate(0 -170 40)"><path d="M0 0 C0.31 28.45, 1.6 56.62, 0 80 M0 0 C1.6 23.86, 1.63 49.38, 0 80 M0 80 C-127.83 79.5, -254.74 79.53, -340 80 M0 80 C-85.9 80, -170.94 80.5, -340 80 M-340 80 C-338.19 61.45, -337.69 46.03, -340 0 M-340 80 C-340.24 56.04, -340.52 32.69, -340 0" stroke="#343a40" stroke-width="2" fill="none"></path></g><g transform="translate(430 142.5) rotate(0 -170 40)"><path d="M-331.69 23.58 C-334.92 15.1, -336.59 6.43, -340 0 M-331.69 23.58 C-333.54 15.32, -336.08 8.72, -340 0" stroke="#343a40" stroke-width="2" fill="none"></path></g><g transform="translate(430 142.5) rotate(0 -170 40)"><path d="M-348.79 23.4 C-345.94 15.15, -341.52 6.54, -340 0 M-348.79 23.4 C-345.33 15.2, -342.57 8.66, -340 0" stroke="#343a40" stroke-width="2" fill="none"></path></g></g><mask id="mask-RBGBwxjayc9upZbWnkX-S"><rect x="0" y="0" fill="#fff" width="870" height="322.5"></rect><rect x="227.48003387451172" y="210" fill="#000" width="65.03993225097656" height="25" opacity="1"></rect></mask><g transform="translate(227.48003387451172 210) rotate(0 32.97919746928761 -27.38854521855032)"><text x="32.51996612548828" y="0" font-family="Virgil, Segoe UI Emoji" font-size="20px" fill="#343a40" text-anchor="middle" style="white-space: pre;" direction="ltr" dominant-baseline="text-before-edge">reward</text></g></svg>